<?xml version="1.0" encoding="UTF-8" standalone="no"?>
<svg
   xmlns:dc="http://purl.org/dc/elements/1.1/"
   xmlns:cc="http://creativecommons.org/ns#"
   xmlns:rdf="http://www.w3.org/1999/02/22-rdf-syntax-ns#"
   xmlns:svg="http://www.w3.org/2000/svg"
   xmlns="http://www.w3.org/2000/svg"
   version="1.1"
   id="svg2"
   width="200"
   height="200">
  <metadata
     id="metadata8">
    <rdf:RDF>
      <cc:Work
         rdf:about="">
        <dc:format>image/svg+xml</dc:format>
        <dc:type
           rdf:resource="http://purl.org/dc/dcmitype/StillImage" />
        <dc:title></dc:title>
      </cc:Work>
    </rdf:RDF>
  </metadata>
  <defs
     id="defs6" />
  <g
     transform="matrix(0.85,0,0,0.78,15,22)"
     id="layer1">
    <path
       id="path818"
       d="M 70.703125,200 H 46.875 C 21.028125,200 0,178.97187 0,153.125 V 89.062498 C 0,63.215625 21.028125,42.1875 46.875,42.1875 h 106.25 c 25.84687,0 46.875,21.028125 46.875,46.874998 V 112.5 c 0,4.31484 -3.49765,7.8125 -7.81251,7.8125 -4.31484,0 -7.81249,-3.49766 -7.81249,-7.8125 V 89.062498 C 184.375,71.83125 170.35625,57.8125 153.125,57.8125 H 46.875 c -17.231249,0 -31.25,14.01875 -31.25,31.249998 V 153.125 c 0,17.23125 14.018751,31.25 31.25,31.25 h 23.828125 c 4.314843,0 7.8125,3.49766 7.8125,7.8125 0,4.31484 -3.497657,7.8125 -7.8125,7.8125 z M 78.906249,23.4375 C 78.906249,10.514062 68.392187,0 55.468749,0 c -12.923436,0 -23.4375,10.514062 -23.4375,23.4375 0,4.314844 3.497657,7.8125 7.8125,7.8125 4.314845,0 7.8125,-3.497656 7.8125,-7.8125 0,-4.307813 3.504689,-7.8125 7.8125,-7.8125 4.307813,0 7.8125,3.504687 7.8125,7.8125 0,4.314844 3.497657,7.8125 7.8125,7.8125 4.314845,0 7.8125,-3.497656 7.8125,-7.8125 z m 89.843751,0 C 168.75,10.514062 158.23594,0 145.31249,0 132.38906,0 121.875,10.514062 121.875,23.4375 c 0,4.314844 3.49765,7.8125 7.81251,7.8125 4.31484,0 7.81249,-3.497656 7.81249,-7.8125 0,-4.307813 3.50468,-7.8125 7.81249,-7.8125 4.30783,0 7.81251,3.504687 7.81251,7.8125 0,4.314844 3.49765,7.8125 7.81249,7.8125 4.31486,0 7.81251,-3.497656 7.81251,-7.8125 z M 200,176.17187 V 155.5375 c 0,-13.17695 -10.71993,-23.89688 -23.89687,-23.89688 h -20.63438 c -4.31484,0 -7.8125,3.49766 -7.8125,7.8125 0,4.31485 3.49766,7.8125 7.8125,7.8125 h 20.63438 c 4.56093,0 8.27187,3.71094 8.27187,8.27188 v 20.63437 c 0,4.31485 3.49765,7.8125 7.81249,7.8125 4.31486,0 7.81251,-3.49765 7.81251,-7.8125 z m -27.16601,-4.76445 c 2.97968,-3.12031 2.86562,-8.06562 -0.2547,-11.0457 -3.1203,-2.97969 -8.06562,-2.86563 -11.0457,0.25469 -14.41875,15.09882 -34.66211,23.75859 -55.53945,23.75859 h -3.65039 c -4.314844,0 -7.812501,3.49766 -7.812501,7.8125 0,4.31484 3.497657,7.8125 7.812501,7.8125 h 3.65039 c 25.12539,0 49.4875,-10.42148 66.83985,-28.59258 z M 51.171875,78.90625 c -5.393359,0 -9.765626,4.372264 -9.765626,9.765623 0,5.39336 4.372267,9.765625 9.765626,9.765625 5.39336,0 9.765625,-4.372265 9.765625,-9.765625 0,-5.393359 -4.372265,-9.765623 -9.765625,-9.765623 z m 33.59375,0 C 79.372265,78.90625 75,83.278514 75,88.671873 c 0,5.39336 4.372265,9.765625 9.765625,9.765625 5.393359,0 9.765624,-4.372265 9.765624,-9.765625 0,-5.393359 -4.372265,-9.765623 -9.765624,-9.765623 z m 33.593755,0 c -5.39337,0 -9.76563,4.372264 -9.76563,9.765623 0,5.39336 4.37226,9.765625 9.76563,9.765625 5.39336,0 9.76562,-4.372265 9.76562,-9.765625 0,-5.393359 -4.37226,-9.765623 -9.76562,-9.765623 z m 33.59375,0 c -5.39336,0 -9.76564,4.372264 -9.76564,9.765623 0,5.39336 4.37228,9.765625 9.76564,9.765625 5.39335,0 9.76562,-4.372265 9.76562,-9.765625 0,-5.393359 -4.37227,-9.765623 -9.76562,-9.765623 z M 51.171875,112.5 c -5.393359,0 -9.765626,4.37226 -9.765626,9.76562 0,5.39336 4.372267,9.76563 9.765626,9.76563 5.39336,0 9.765625,-4.37227 9.765625,-9.76563 0,-5.39336 -4.372265,-9.76562 -9.765625,-9.76562 z m 0,33.59375 c -5.393359,0 -9.765626,4.37227 -9.765626,9.76562 0,5.39336 4.372267,9.76563 9.765626,9.76563 5.39336,0 9.765625,-4.37227 9.765625,-9.76563 0,-5.39335 -4.372265,-9.76562 -9.765625,-9.76562 z M 84.765625,112.5 C 79.372265,112.5 75,116.87226 75,122.26562 c 0,5.39336 4.372265,9.76563 9.765625,9.76563 5.393359,0 9.765624,-4.37227 9.765624,-9.76563 0,-5.39336 -4.372265,-9.76562 -9.765624,-9.76562 z m 0,33.59375 c -5.39336,0 -9.765625,4.37227 -9.765625,9.76562 0,5.39336 4.372265,9.76563 9.765625,9.76563 5.393359,0 9.765624,-4.37227 9.765624,-9.76563 0,-5.39335 -4.372265,-9.76562 -9.765624,-9.76562 z M 118.35938,112.5 c -5.39337,0 -9.76563,4.37226 -9.76563,9.76562 0,5.39336 4.37226,9.76563 9.76563,9.76563 5.39336,0 9.76562,-4.37227 9.76562,-9.76563 0,-5.39336 -4.37226,-9.76562 -9.76562,-9.76562 z"
       style="fill:#164450;stroke-width:0.390625" />
  </g>
</svg>
