<svg id="Layer_1" enable-background="new 0 0 512 512" height="512" viewBox="0 0 512 512" width="512" xmlns="http://www.w3.org/2000/svg"><path d="m512 187.733c0 153.6-256 273.067-256 273.067s-144-67.2-216-165.6c-24-32.8-40-69.067-40-107.467 0-46.517 23.264-87.595 58.795-112.256 65.569-45.498 157.578-25.326 197.205 46.123 54.107-97.557 196.144-92.51 243.243 8.437.466.467 12.757 25.646 12.757 57.696z" fill="#ea8692"/><path d="m501.333 152.885c0 70.4-58.667 132.979-117.333 177.957-69.157 53.022-164.981 53.316-234.191.363-57.107-43.693-117.809-106.73-117.809-178.32 0-29.227 10.016-56.107 26.795-77.408 65.569-45.498 157.578-25.326 197.205 46.123 54.012-97.385 196.067-92.675 243.243 8.437.102.102 2.09 10.468 2.09 22.848z" fill="#fe929f"/><g fill="#ffa4b8"><path d="m454.566 155.713c-3.546-8.734-13.502-12.938-22.233-9.393-8.733 3.546-12.939 13.501-9.393 22.233 19.939 49.113-47.07 111.756-89.164 144.288-12.849 9.93-5.78 30.571 10.448 30.571 3.645 0 7.318-1.163 10.424-3.564 58.247-45.016 127.5-116.205 99.918-184.135z"/><path d="m388.266 138.151c6.602 1.705 7.769 3.367 12.795 3.367 6.741 0 13.128-4.021 15.819-10.652 3.545-8.734-.661-18.688-9.394-22.233-3.469-1.408-7.064-2.596-10.685-3.531-9.126-2.358-18.435 3.131-20.792 12.257s3.131 18.435 12.257 20.792z"/></g></svg>