<?xml version="1.0" encoding="UTF-8" standalone="no"?>
<svg
   xmlns:dc="http://purl.org/dc/elements/1.1/"
   xmlns:cc="http://creativecommons.org/ns#"
   xmlns:rdf="http://www.w3.org/1999/02/22-rdf-syntax-ns#"
   xmlns:svg="http://www.w3.org/2000/svg"
   xmlns="http://www.w3.org/2000/svg"
   xmlns:sodipodi="http://sodipodi.sourceforge.net/DTD/sodipodi-0.dtd"
   xmlns:inkscape="http://www.inkscape.org/namespaces/inkscape"
   id="Layer_1"
   enable-background="new 0 0 512 512"
   height="512"
   viewBox="0 0 512 512"
   width="512"
   version="1.1"
   sodipodi:docname="heart.svg"
   inkscape:version="1.0.2 (e86c870879, 2021-01-15, custom)">
  <metadata
     id="metadata948">
    <rdf:RDF>
      <cc:Work
         rdf:about="">
        <dc:format>image/svg+xml</dc:format>
        <dc:type
           rdf:resource="http://purl.org/dc/dcmitype/StillImage" />
      </cc:Work>
    </rdf:RDF>
  </metadata>
  <defs
     id="defs946" />
  <sodipodi:namedview
     pagecolor="#ffffff"
     bordercolor="#666666"
     borderopacity="1"
     objecttolerance="10"
     gridtolerance="10"
     guidetolerance="10"
     inkscape:pageopacity="0"
     inkscape:pageshadow="2"
     inkscape:window-width="1342"
     inkscape:window-height="729"
     id="namedview944"
     showgrid="false"
     inkscape:zoom="1.3838301"
     inkscape:cx="264.66442"
     inkscape:cy="298.73021"
     inkscape:window-x="1928"
     inkscape:window-y="29"
     inkscape:window-maximized="0"
     inkscape:current-layer="Layer_1" />
  <path
     id="path933"
     style="color:#000000;font-style:normal;font-variant:normal;font-weight:normal;font-stretch:normal;font-size:medium;line-height:normal;font-family:sans-serif;font-variant-ligatures:normal;font-variant-position:normal;font-variant-caps:normal;font-variant-numeric:normal;font-variant-alternates:normal;font-variant-east-asian:normal;font-feature-settings:normal;font-variation-settings:normal;text-indent:0;text-align:start;text-decoration:none;text-decoration-line:none;text-decoration-style:solid;text-decoration-color:#000000;letter-spacing:normal;word-spacing:normal;text-transform:none;writing-mode:lr-tb;direction:ltr;text-orientation:mixed;dominant-baseline:auto;baseline-shift:baseline;text-anchor:start;white-space:normal;shape-padding:0;shape-margin:0;inline-size:0;clip-rule:nonzero;display:inline;overflow:visible;visibility:visible;opacity:1;isolation:auto;mix-blend-mode:normal;color-interpolation:sRGB;color-interpolation-filters:linearRGB;solid-color:#000000;solid-opacity:1;vector-effect:none;fill:#ea8692;fill-opacity:1;fill-rule:nonzero;stroke:none;stroke-width:1;stroke-linecap:butt;stroke-linejoin:miter;stroke-miterlimit:4;stroke-dasharray:none;stroke-dashoffset:0;stroke-opacity:1;color-rendering:auto;image-rendering:auto;shape-rendering:auto;text-rendering:auto;enable-background:accumulate;stop-color:#000000;stop-opacity:1"
     d="M 136.07227,51.201172 C 109.33733,51.257432 82.358781,59.125719 58.794922,75.476562 23.263922,100.13756 0,141.21542 0,187.73242 c 0,38.4 16,74.6668 40,107.4668 61.05668,83.44413 161.52846,132.23119 194.41719,148.8487 L 298.75195,260.93945 H 206.77539 L 249.83008,111.51562 C 223.46338,72.210903 180.10073,51.10852 136.07227,51.201172 Z m 239.66015,0.09375 c -32.31189,-0.08976 -64.68437,11.004818 -90.25195,33.5 L 251.06055,213.24805 H 387.32227 L 263.18359,457.27148 C 303.23295,437.3111 512,326.64197 512,187.73242 c 0,-32.05 -12.29181,-57.22831 -12.75781,-57.69531 C 474.95677,77.986312 425.43086,51.432974 375.73242,51.294922 Z"
     sodipodi:nodetypes="scssccccssccccscs" />
  <path
     id="path935"
     style="color:#000000;font-style:normal;font-variant:normal;font-weight:normal;font-stretch:normal;font-size:medium;line-height:normal;font-family:sans-serif;font-variant-ligatures:normal;font-variant-position:normal;font-variant-caps:normal;font-variant-numeric:normal;font-variant-alternates:normal;font-variant-east-asian:normal;font-feature-settings:normal;font-variation-settings:normal;text-indent:0;text-align:start;text-decoration:none;text-decoration-line:none;text-decoration-style:solid;text-decoration-color:#000000;letter-spacing:normal;word-spacing:normal;text-transform:none;writing-mode:lr-tb;direction:ltr;text-orientation:mixed;dominant-baseline:auto;baseline-shift:baseline;text-anchor:start;white-space:normal;shape-padding:0;shape-margin:0;inline-size:0;clip-rule:nonzero;display:inline;overflow:visible;visibility:visible;opacity:1;isolation:auto;mix-blend-mode:normal;color-interpolation:sRGB;color-interpolation-filters:linearRGB;solid-color:#000000;solid-opacity:1;vector-effect:none;fill:#fe929f;fill-opacity:1;fill-rule:nonzero;stroke:none;stroke-width:1;stroke-linecap:butt;stroke-linejoin:miter;stroke-miterlimit:4;stroke-dasharray:none;stroke-dashoffset:0;stroke-opacity:1;color-rendering:auto;image-rendering:auto;shape-rendering:auto;text-rendering:auto;enable-background:accumulate;stop-color:#000000;stop-opacity:1"
     d="M 136.07227,51.201172 C 109.33733,51.257432 82.358781,59.125719 58.794922,75.476562 42.015922,96.777563 32,123.65777 32,152.88477 c 0,71.59 60.701594,134.62731 117.80859,178.32031 35.27843,26.99174 65.4277,54.59124 107.47951,53.98194 L 298.75195,260.93945 H 206.77539 L 249.83008,111.51562 C 223.46338,72.210903 180.10073,51.10852 136.07227,51.201172 Z m 239.5957,0.09961 C 343.36862,51.239175 311.01639,62.350027 285.47461,84.8125 L 251.06055,213.24805 H 387.32227 L 309.67969,365.87109 C 336.05727,359.81322 361.44667,348.13322 384,330.8418 c 58.666,-44.978 117.33203,-107.55703 117.33203,-177.95703 0,-12.38 -1.98784,-22.74566 -2.08984,-22.84766 C 474.91706,77.901234 425.36734,51.395576 375.66797,51.300781 Z"
     sodipodi:nodetypes="scssccccsscccccscs" />
  <g
     fill="#ffa4b8"
     id="g941">
    <path
       d="m454.566 155.713c-3.546-8.734-13.502-12.938-22.233-9.393-8.733 3.546-12.939 13.501-9.393 22.233 19.939 49.113-47.07 111.756-89.164 144.288-12.849 9.93-5.78 30.571 10.448 30.571 3.645 0 7.318-1.163 10.424-3.564 58.247-45.016 127.5-116.205 99.918-184.135z"
       id="path937" />
    <path
       d="m388.266 138.151c6.602 1.705 7.769 3.367 12.795 3.367 6.741 0 13.128-4.021 15.819-10.652 3.545-8.734-.661-18.688-9.394-22.233-3.469-1.408-7.064-2.596-10.685-3.531-9.126-2.358-18.435 3.131-20.792 12.257s3.131 18.435 12.257 20.792z"
       id="path939" />
  </g>
</svg>
