<?xml version="1.0" encoding="UTF-8"?>
<svg enable-background="new 0 0 512 512" version="1.1" viewBox="0 0 512 512" xml:space="preserve" xmlns="http://www.w3.org/2000/svg" xmlns:cc="http://creativecommons.org/ns#" xmlns:dc="http://purl.org/dc/elements/1.1/" xmlns:rdf="http://www.w3.org/1999/02/22-rdf-syntax-ns#"><metadata><rdf:RDF><cc:Work rdf:about=""><dc:format>image/svg+xml</dc:format><dc:type rdf:resource="http://purl.org/dc/dcmitype/StillImage"/><dc:title/></cc:Work></rdf:RDF></metadata>
<g transform="scale(.82203 .82627)">
		<path transform="scale(1.2165 1.2103)" d="m69.051 0v33.051h-19.729c-27.196 0-49.322 22.24-49.322 49.576v290.85c0 27.336 22.126 49.576 49.322 49.576h193.04c-0.0406-0.15099-0.082-0.30178-0.1211-0.45312-0.0177-0.0274-0.0453-0.075-0.0625-0.10157 0.0134 0.0311-0.0929-0.26688 0.13868 0.40821 0.0479 0.13973-0.12256-0.26923-0.16016-0.41211-4e-3 -0.0136-6e-3 -0.0254-0.01-0.041 7e-3 0.0106 0.0202 0.0279 0.0274 0.0391-8e-3 -0.0205-0.0577-0.16686-0.0449-0.13281 0.0104 0.0443 9e-3 0.0573 0.0176 0.0918-0.60561-0.92951-0.59273-0.89912-0.65429-1.6582-0.10868-0.20074-0.21356-0.40375-0.32031-0.60547-0.15089-0.46815-0.12419-0.42264-0.17969-0.68946-1e-3 -2e-3 -1e-3 -6e-3 -2e-3 -8e-3s-5e-3 -9e-3 -6e-3 -0.01c-0.0737-0.1051-0.21285-0.31386-0.0371-0.0684-0.19737-0.3736-0.16819-0.34177-0.0117-0.0879-3e-3 -8e-3 -5e-3 -0.0262-8e-3 -0.0352-0.32085-0.57142-0.66671-1.1307-0.94726-1.7227-0.12323-0.26001-0.19601-0.66134-0.25391-1.0762-0.3552-0.78141-0.61556-1.5064-0.80859-2.1152-0.10033-0.11597-0.19602-0.23587-0.26172-0.37305-0.0925-0.19315-0.0957-0.21176-0.17969-0.38867 6e-3 0.095 2e-3 0.0564 8e-3 0.17187 0.0505 0.20834 0.0977 0.41769 0.15234 0.625 0.0848 0.32189-0.14709-0.48381-0.28711-0.95703-0.0748-0.20055-0.18807-0.47544-0.1875-0.52344-1.8731-4.0109-1.1636-3.0186-0.77539-1.959-0.0808-0.43808-0.14499-0.87999-0.21289-1.3203-0.0186-0.0594-0.0156-0.0242-0.0547-0.17383-0.0173-0.16261-0.0816-0.64922-0.0527-0.48828 0.0396 0.2199 0.0733 0.44126 0.10742 0.66211 0.0831 0.26564 8e-3 -0.14486-0.11914-0.7793-0.0513-0.16852-0.10774-0.36611-0.14844-0.46875 0.0306 0.055 0.0587 0.11207 0.0879 0.16797-7e-3 -0.0337-0.0125-0.0585-0.0195-0.0918-0.0181-0.0411-0.0421-0.0808-0.0547-0.12304-0.11121-0.17553-0.21903-0.35519-0.3418-0.51758-0.0243-0.2057-0.0416-0.31048-0.0645-0.49805 0.0167 0.0277 0.0232 0.0307-0.26562-0.4043 0.0269 0.0488 0.0533 0.0977 0.0801 0.14649 0.0342 0.0621-0.14496-0.2424-0.10546-0.1836 0.0304 0.0451-1e-3 -3e-3 0.0254 0.0371-0.23674-0.42966-0.47363-0.85775-0.71094-1.2871-0.0865-0.3881-0.19412-0.77376-0.29102-1.1602-0.21039-0.3849-0.44703-0.75794-0.58203-1.1738-0.0608-0.18754-0.0904-0.31572-0.13672-0.47461-3e-3 -6e-3 -5e-3 -0.0116-8e-3 -0.0176-0.0694-0.0611-0.26573-0.43719-0.39258-0.66601-0.11949-0.13054-0.30366-0.37968-0.38086-0.50782-0.45161-0.75004-0.82963-1.5412-1.2402-2.3144-0.0132-0.0248-0.0353-0.10758-0.0293-0.0801 0.0117 0.0589 0.0712 0.22963 0.0488 0.17383-0.13226-0.33032-0.25259-0.66541-0.37891-0.99805-0.0775-0.36184-0.0979-0.47613-0.14843-0.69726-0.0592-0.0839-0.12323-0.16451-0.17383-0.25391-0.59511-1.0528-0.92343-1.7701-1.0781-2.7656-0.16641-0.29461-0.33069-0.59161-0.43359-0.91211-8e-3 -0.0238-0.0125-0.0484-0.0195-0.0723-0.17426-0.21836-0.34076-0.44144-0.47461-0.68554-0.57473-1.0481-0.85096-1.7991-0.97266-2.7031-0.0788-0.15955-0.0947-0.19195-0.16601-0.33789h-179.36c-9.0654 0-16.441-7.4133-16.441-16.525v-218.13h355.12v218.13c0 9.1121-7.376 16.525-16.441 16.525h-39.129c0.0293 0.0209 0.0849 0.0485 0.10742 0.0664 0.19573 0.15564 0.37122 0.33435 0.55664 0.50195 4e-3 2e-3 6e-3 2e-3 0.01 4e-3 -2e-3 -4.3e-4 0.0405 0.0237 0.043 0.0254 0.94106 0.48666 1.0777 0.65795 1.918 1.3555 0.0113 0.0113 0.0386 0.0354 0.0527 0.0488 0.2523 0.16883 0.50738 0.33183 0.74414 0.52149 0.26806 0.21474 1.0473 0.61662 0.86719 0.72461 0.60292 0.46803 1.1462 0.97071 1.6797 1.5215 0.1345 0.1442 0.27312 0.28403 0.41016 0.42578 0.44221 0.33323 1.0378 0.77158 2.2559 1.5312 0.0137 8e-3 -0.0299-0.0351-0.0293-0.0391-0.27369-0.22386-0.69744-0.56035-0.52344-0.41992 0.23693 0.19124 0.33246 0.2615 0.50782 0.39844-0.0427-0.0727-0.34826-0.38438-0.25196-0.29688 0.10701 0.0972 0.21276 0.19612 0.31836 0.29492 0.098 0.0948 0.24337 0.23006 0.29297 0.28516 0.74281 0.57438 0.92109 0.71508 1.3555 1.4746v2e-3c0.53968 0.31277 0.675 0.35131 0.86524 0.56055 0.068 0.0444 0.15316 0.0983 0.19726 0.12695 0.40376 0.26256 0.78103 0.56233 1.1719 0.84375 0.25248 0.24782 1.0636 0.67853 0.83593 0.76953 0.52244 0.26998 0.60341 0.23526 0.79688 0.46485 0.26005 0.14713 0.51576 0.30275 0.74805 0.49023 0.0603 0.0487 0.10801 0.11226 0.16601 0.16406v-2e-3c0.12137 0.0919 0.19721 0.16559 0.28711 0.24609-0.0844-0.0753-0.17327-0.14595-0.25977-0.21875-9e-3 -8e-3 -0.0178-0.0167-0.0273-0.0254-9e-3 -7e-3 -0.0203-0.0145-0.0293-0.0215 0.0191 0.0159 0.0376 0.0328 0.0566 0.0488 0.1987 0.18051 0.38811 0.36935 0.55665 0.58007-2e-3 -0.0467-0.0274-0.10262-0.0879-0.17382 0.10006 0.0926 0.19838 0.18675 0.29688 0.28125 0.0699 0.02 0.40241 0.21843 0.53516 0.30273 0.18056 0.11461 0.35421 0.24038 0.52929 0.36328 3e-3 -2e-3 -9e-5 -6e-3 4e-3 -8e-3 0.2272-0.12111 0.44148 0.26574 0.66211 0.39844 0.0677 0.0529 0.13452 0.1065 0.20312 0.1582 0.0564 0.0123 0.40316 0.25431 0.53907 0.34961 0.37862 0.2656 0.37248 0.2704 0.55664 0.4043 0.0929 0.0495 0.0187-7e-3 0.24218 0.125 0.33622 0.254 0.68637 0.49122 1.0078 0.76367 0.12855 0.10895 0.38725 0.31746 0.57422 0.48242-0.0204-4e-3 -0.0571-8e-3 -0.0801-0.0117 0.0456 0.0308 0.0902 0.0635 0.13476 0.0957 0.015-1e-3 0.0169-5e-3 0.0293-6e-3 -0.0305-0.0289-0.0457-0.0463-0.084-0.0801 0.1867 0.0339 0.25092 0.0626 0.084 0.0801l0.01 0.0117c0.40608 0.0523 0.80837 0.12215 1.1895 0.26758 0.80858 0.30856 1.4807 0.90486 2.1582 1.4434 0.0674 0.0536 0.12505 0.11964 0.18945 0.17774 0.0174 0.0109 0.032 0.0187 0.0488 0.0293 0.0944 0.0482 0.26878 0.13969 0.40039 0.20899 0.3211 0.13723 0.96139 0.31597 0.82422 0.38867 0.38997 0.13597 0.80442 0.28985 1.1152 0.44922 0.49112 0.25181 0.98197 0.55221 1.3418 0.9707 0.0258 0.03 0.0471 0.0633 0.0723 0.0937 0.24031 0.0631 0.29841 0.16491 2.0781 1.2051 0.0709 0.0633 0.2088 0.16857 0.33203 0.26367h2e-3c0.13935 0.0536 0.26558 0.1238 0.375 0.2168 0.0417 0.0194 0.0865 0.0326 0.12695 0.0547 0.0299 0.0164-0.0829-0.0283-0.0976-0.0312 0.0166 0.0156 0.0373 0.0258 0.0527 0.043 0.0126 0.0146 0.0116 0.0183 0.0176 0.0274 0.36185 0.14097 0.72383 0.28079 1.0781 0.43945 0.38226 0.17118 1.0418 0.72066 1.459 1.0781 3e-3 2e-3 6e-3 4e-3 0.01 6e-3 8e-3 7e-3 0.0125 0.0116 0.0195 0.0176 0.0685 0.0361 0.0899 0.0458 0.15235 0.0781 0.0269 8e-3 0.0457 0.0154 0.0723 0.0234 1e-3 6.4e-4 3e-3 1e-3 4e-3 2e-3 0.26697 0.0785 0.49288 0.15034 0.32227 0.15234-0.0218 3e-4 -0.0616-0.0126-0.0879-0.0156 0.0201 0.0101 0.0506 0.0261 0.0684 0.0351 0.24031 0.0722 0.48138 0.14192 0.7168 0.22852 0.21271 0.0782 0.41698 0.18182 0.60742 0.30469 0.81517 0.52596 1.1602 0.74736 1.4277 0.95898 1.3684 0.38598 1.2195 0.32807 3.1797 1.582 1.7995 0.47537 1.9644 0.68783 3.291 1.8047 0.0507 0.062 0.10114 0.12405 0.15234 0.18555 0.41263 0.16578 0.82567 0.33227 1.2383 0.49804 2e-3 2e-3 8e-3 6e-3 0.01 8e-3 0.93111 0.19789 0.63844 0.0707 2.3398 1.3398-0.0796-0.0603-0.1029-0.0683-0.1289-0.0879 0.2008 0.14817 0.40022 0.29913 0.59961 0.44922 0.41597 0.20952 0.73205 0.46857 1.4824 1.0742 0.0442 0.0152 0.0651 0.0365 0.10547 0.0527 22.392-4.6794 39.27-24.665 39.27-48.539v-290.85c0-27.336-22.126-49.576-49.322-49.576h-19.73v-33.051h-32.881v33.051h-217.02v-33.051zm312.46 421.96c-0.0274-9e-3 -0.0567-0.0183-0.0859-0.0274 0.0369 0.0161 0.0797 0.0376 0.1211 0.0566-0.0154-0.0124-0.0204-0.0173-0.0352-0.0293zm-0.0859-0.0274c-0.25797-0.113-0.42097-0.17329-0.32617-0.0918 0.12217 0.0266 0.22104 0.0597 0.32617 0.0918zm-0.32617-0.0918c-0.047-0.0102-0.0979-0.0173-0.14648-0.0273 0.0293 8e-3 0.20077 0.14366 0.35156 0.26172 0.0394-8e-3 0.0798-0.0134 0.11914-0.0215-0.0831-0.0505-0.16915-0.0964-0.25-0.15039-0.0524-0.035-0.0512-0.0427-0.0742-0.0625zm-0.14648-0.0273c-0.11285-0.0222-0.22333-0.047-0.33985-0.0664 0.0182 0.01 0.0365 0.0193 0.0547 0.0293 0.20436 0.0513 0.24056 0.0252 0.28516 0.0371zm-47.801-31.217c-0.0154-8e-3 -0.0232-0.0133-0.0391-0.0215 0.12554 0.11349 0.25446 0.22282 0.37696 0.33985 0.17436 0.0675 0.26737 0.10994 0.46874 0.18554 0.29951 0.11237-0.74901-0.46384-0.80664-0.5039zm-96.227 17.756c0.0139 0.022 0.0291 0.0424 0.043 0.0645-0.0524-0.25483-0.10923-0.54247-0.14453-0.71094-0.0431-0.20561 0.038 0.42001 0.0918 0.62305 2e-3 8e-3 8e-3 0.0154 0.01 0.0234zm0.043 0.0645c5e-3 0.021 8e-3 0.0374 0.0117 0.0586 0.0506 0.11512 0.10169 0.22947 0.15039 0.34375 0.1054 0.20533 0.21386 0.40885 0.3457 0.59766 0.15555 0.22275 0.63955 0.85172 0.56055 0.5918-0.0468-0.15378-0.0997-0.30582-0.14844-0.45899-0.37589-0.30359-0.65402-0.71132-0.91992-1.1328zm3.9648 10.869c7e-3 0.013 0.0145 0.0261 0.0215 0.0391-0.0479-0.21261-0.0565-0.29108-0.31055-1.2324-0.10895-0.40372 0.14799 0.73349 0.28906 1.1934zm0.0215 0.0391c1e-3 5e-3 7e-3 0.0243 8e-3 0.0293 0.0421 0.0686 0.0743 0.12182 0.12109 0.19922-0.0412-0.0772-0.0863-0.15212-0.1289-0.22852zm8e-3 0.0293c-7e-3 -0.0116-0.0145-0.022-0.0215-0.0332 3e-3 0.01 9e-3 0.032 0.0117 0.041 4e-3 0.0123 0.0194 0.0382 0.0254 0.0527-2e-3 -9e-3 -0.0136-0.0505-0.0156-0.0605zm-191.64-353.25h19.729v33.051h32.881v-33.051h217.02v33.051h32.881v-33.051h19.729c9.0654 0 16.441 7.4133 16.441 16.525v39.662h-355.12v-39.662c0-9.1121 7.376-16.525 16.441-16.525zm269.27 315.6c0.2942 0.18562 0.60498 0.39507 0.45508 0.29687-0.34774-0.22777-0.27549-0.17698-0.45508-0.29687zm12.832 8.2949c0.0868 0.0818 0.57275 0.32283 1.6055 0.73633-0.0311-0.0263-0.18337-0.15171-0.23047-0.19141-0.59373-0.31991-1.0688-0.50134-1.2715-0.54492zm1.375 0.54492c0.078 0.042 0.15458 0.0827 0.23438 0.12891-0.15637-0.14888-0.31761-0.30573-0.48242-0.47461-0.12258-0.0577-0.24593-0.11402-0.3711-0.16992 0.26034 0.21782 0.49257 0.40882 0.61914 0.51562zm0.23438 0.12891c0.0354 0.0337 0.0756 0.0756 0.10937 0.10742 0.0734 0.0291 0.14161 0.057 0.22071 0.0879-0.11336-0.0731-0.2174-0.13011-0.33008-0.19531zm0.10937 0.10742c-0.0377-0.0149-0.0771-0.0304-0.11328-0.0449 0.25901 0.21871 0.52157 0.4292 0.11328 0.0449zm0.57618 0.34961c0.36348 0.35441 0.72137 0.71612 1.0918 1.0625-0.26399-0.40386-0.66702-0.75078-1.0918-1.0625zm-103.84 0.56055c-0.0497-0.19926 0.0362 0.40875 0.0547 0.61328 0.0318 0.07 0.0653 0.13928 0.0977 0.20898-0.0447-0.27558-0.0849-0.55217-0.15234-0.82226zm2.3047 0.79297c-0.0321-7e-3 0.39342 0.58647 0.53711 0.81054-0.23497-0.37404-0.27514-0.45708-0.40429-0.66406-0.0452-0.0505-0.0402-0.0504-0.0879-0.10352-0.0254-0.0283-0.0399-0.042-0.0449-0.043zm104.43 0.78515c0.79788 0.70979 0.65476 0.57965 0.0117 0-4e-3 1.1e-4 -8e-3 3e-5 -0.0117 0zm4.4453 4.0703c0.0482 0.0333 0.0535 0.033 0.0996 0.0645 0.1467 0.0614 0.34378 0.14438 0.42578 0.17578 0.17995 0.0688-0.68401-0.34957-0.52539-0.24024zm-0.33984 0.97657c0.016 0.0114 0.0188 0.0137 0.0352 0.0254 4e-3 2e-3 2e-3 2e-3 6e-3 4e-3 0.0386 0.0248 0.12706 0.0901 0.18946 0.13282-0.0328-0.0273-0.10676-0.0843-0.16016-0.12696-0.0466-0.0243-0.0573-0.0292-0.0703-0.0351zm3.1133 1.1387c2e-3 6e-3 0.0223 0.0237 0.0664 0.0547 0.0465 0.0327 0.0705 0.045 0.11523 0.0762-0.0251-0.0302-0.0511-0.0596-0.0762-0.0899-0.0566-0.0264-0.10847-0.05-0.10547-0.041zm0.20899 0.0918c0.024 0.0324 0.0611 0.0828 0.0879 0.11914 0.45711 0.31573 0.81777 0.55116 1.1016 0.7246-0.10266-0.13839-0.2003-0.28774-0.3086-0.39843-0.27057-0.13225-0.63909-0.32518-0.88085-0.44531zm1.0957 0.79492c-0.0637-0.0306-0.0587-0.0171 0.0449 0.0508 0.0292 0.0192 0.0623 0.0322 0.0918 0.0508-0.0124-0.0159-0.0249-0.0305-0.0371-0.0469-0.0263-0.0139-0.0827-0.0467-0.0996-0.0547zm0.66406 0.38476c-5e-3 2e-3 -6e-3 5e-3 -0.0117 6e-3 0.0725 0.0391 0.14195 0.0826 0.21485 0.1211-0.0672-0.0405-0.14093-0.0902-0.20313-0.12696zm0.86328 0.53321c0.0128 0.0163 0.0209 0.0223 0.0352 0.041 0.11464 0.0597 0.20297 0.11599 0.30664 0.17969-0.11999-0.0811-0.2177-0.1407-0.3418-0.2207zm0.22461 0.29492c0.16318 0.21988 0.32921 0.45037 0.73047 0.97656 0.20492 0.0356 0.32174 0.0301 0.39844 8e-3 -0.20471-0.25125-0.42946-0.52945-0.5586-0.67578-0.14657-0.15997-0.35774-0.23469-0.57031-0.30859zm1.5293 1.1035c0.45513 0.44018 0.90323 0.89122 1.3867 1.2988 0.38495 0.32455-0.20346-0.31925-0.50782-0.65234-0.17359-0.1048-0.65005-0.45655-0.8789-0.64649zm-20.596 1.291c0.0557 0.0269 0.11378 0.0531 0.17188 0.0801-6e-3 -7e-3 -0.0116-0.0145-0.0176-0.0215-0.0511-0.0201-0.1036-0.0377-0.1543-0.0586zm-91.842 1.0371c6e-3 0.12248 0.0136 0.25733 0.0176 0.33203 0.0143 0.24786 0.0538 0.49466 0.10156 0.73828 0.0206 0.10504 0.0692 0.20132 0.10351 0.30274-0.024-0.0792-0.11776-0.30543-0.0723-0.23633 0.0739 0.11206 0.18853 0.33519 0.28906 0.52734-0.0214-0.16555-0.0443-0.35525-0.0644-0.50391-0.12374-0.38718-0.25035-0.77326-0.375-1.1602zm116.16 0.24414c0.20276 0.14151 0.40288 0.28708 0.59961 0.4375 0.0361 0.0209 0.0759 0.0391 0.11133 0.0605-0.13128-0.14926-0.2614-0.29972-0.4336-0.38672-0.089-0.045-0.18474-0.0744-0.27734-0.11133zm-116.27 0.41211c9e-3 0.0476 0.0153 0.1227 0.0254 0.1543 0.0435 0.13656 0.0908 0.23006 0.13672 0.35546-0.17111-0.53336-0.0508-0.16061-0.16211-0.50976zm0.16211 0.50976c0.17807 0.4869 0.34031 0.86333 0.4668 1.1113-0.0234-0.18992-0.0425-0.34009-0.0645-0.51172-0.13354-0.2002-0.26559-0.40174-0.40234-0.59961zm117.29-0.10742 4e-3 4e-3c0.13955 0.0562 0.13752 0.0546-4e-3 -4e-3zm0.38672 0.33594c0.089 0.0824 0.17968 0.16481 0.26758 0.25781 0.0403 0.0328 0.0807 0.065 0.12109 0.0977 0.0866 0.0298 0.17317 0.0599 0.25977 0.0898-0.22167-0.25181-0.43045-0.36201-0.64844-0.44531zm5.5039 3.2539c3e-3 3e-3 7e-3 5e-3 0.01 8e-3 5e-3 4e-3 3e-3 2e-3 8e-3 6e-3 0.0908 0.0264 0.15297 0.0428 0.23047 0.0645 0-2e-3 -2e-3 -4e-3 -2e-3 -6e-3 -0.0558-0.0226-0.11062-0.0468-0.16602-0.0703-0.028-2e-3 -0.0489 3e-3 -0.0801-2e-3zm2.1074 1.1914c0.0487 0.0453 0.10013 0.0857 0.14843 0.13281 0.10661 0.0279 0.21433 0.0521 0.32032 0.082-0.15613-0.0718-0.31337-0.14145-0.46875-0.21485zm1.5742 0.79492c0.0694 0.0777 0.13513 0.15929 0.20313 0.23829 0.10292 0.0518 0.15709 0.074 0.24219 0.11523-0.16426-0.12871-0.34962-0.27032-0.44532-0.35352zm0.44532 0.35352c-0.0785-0.0357-0.15783-0.0698-0.23633-0.10547 0.0113 0.0133 0.0238 0.0258 0.0351 0.0391 0.15657 0.0849 0.30408 0.1817 0.41797 0.31641 0.0328 0.0165 0.0627 0.0385 0.0957 0.0547 0.18592 0.0914-0.0443-0.0926-0.3125-0.30274v-2e-3zm0.21679 0.25c-0.0164-8e-3 -0.0325-0.0174-0.0488-0.0254 0.0234 0.017 0.0468 0.0339 0.0703 0.0508-3e-3 -3e-3 -9e-3 -0.0126-0.0117-0.0156-3e-3 -4e-3 -7e-3 -6e-3 -0.01-0.01zm-0.0488-0.0254c-0.1062-0.0769-0.2125-0.15317-0.31836-0.23047 0.0269 0.0317 0.0533 0.0639 0.0801 0.0957 0.0805 0.043 0.15689 0.0935 0.23829 0.13477zm-0.31836-0.23047c-0.0171-0.02-0.0337-0.0405-0.0508-0.0605-0.0471-0.0255-0.0917-0.0548-0.14062-0.0781 0.0636 0.0466 0.12771 0.0922 0.19141 0.13867zm-0.0859-0.0996c-3e-3 -3e-3 -4e-3 -7e-3 -6e-3 -0.01-0.0754-0.038-0.23053-0.12269-0.17773-0.084 0.0112 8e-3 0.022 0.0174 0.0332 0.0254 0.0501 0.0228 0.10029 0.0456 0.15039 0.0684zm0.25976 0.30664c0.0258 0.0308 0.0524 0.0609 0.0781 0.0918 0.064 0.0144 0.12751 0.0302 0.19141 0.0449-1e-3 -1e-3 -3e-3 -5e-3 -4e-3 -6e-3 -0.11584-0.0646-0.17273-0.082-0.26563-0.13086zm-14.207 0.44141c0.10794 0.0663 0.2139 0.13547 0.32227 0.20117 0.017 5e-3 0.0338 0.0106 0.0508 0.0156-0.0324-0.0412-0.0722-0.0727-0.11328-0.10156-0.0869-0.0375-0.17277-0.0778-0.25977-0.11523zm-110.72 0.12109c-0.0114 0.0167 0.0116 0.38985 0.0273 0.67188 0.11149 0.19222 0.2291 0.38049 0.33203 0.57812-0.22855-0.77341-0.33567-1.2847-0.35937-1.25zm126.98 0.26172c0.016 0.0119 0.0309 0.0252 0.0469 0.0371 0.0922 0.0458 0.18464 0.0917 0.27734 0.13672-0.0457-0.029-0.0878-0.0631-0.13476-0.0899-0.0599-0.0342-0.0862-0.0372-0.18946-0.084zm1.8574 1.209c0.0127 0.012 0.0244 0.025 0.0371 0.0371 0.0106 5e-3 0.0131 5e-3 0.0234 0.01-0.028-0.0213-0.0403-0.0312-0.0606-0.0469zm-48.035 2.6094c0.0607 0.0809 0.67578 0.55225 0.90234 0.71094 0.0136 3.8e-4 0.0218-4e-4 0.0352 0-0.20498-0.17813-0.34442-0.29222-0.48438-0.40821-0.13677-0.0992-0.28714-0.21645-0.40234-0.28515-0.0488-0.0291-0.062-0.0325-0.0508-0.0176zm55.768 1.7695c0.2399 0.0736 0.29493 0.0772 0.49414 0.13477-0.0876-0.0418-0.17733-0.0805-0.26563-0.1211-0.12498-0.0107-0.30161-0.0361-0.22851-0.0137zm-133.86 0.0664c-0.0355-0.0256 0.0161 0.79551 0.082 1.1562 0.051 0.0849 0.11664 0.19008 0.14844 0.24218-0.17213-0.24908-0.0391-0.0567-0.14453-0.20898 2e-3 8e-3 2e-3 0.0262 4e-3 0.0332 0.0583 0.27212 0.14454 0.53674 0.24024 0.79883-0.0362-0.38227-0.11183-0.9618-0.30859-1.9473-9e-3 -0.047-0.0165-0.0702-0.0215-0.0742zm134.92 0.14843c0.0264 0.0316 0.0516 0.0641 0.0781 0.0957 0.20357 0.0537 0.50463 0.14389 0.65625 0.17968-0.23808-0.10676-0.48302-0.20039-0.73437-0.27539zm0.38281 0.46875c0.0817 0.0994 0.16464 0.19763 0.24414 0.29883 0.0123 7e-3 0.023 0.0164 0.0352 0.0234-0.0829-0.11097-0.16695-0.20994-0.2793-0.32227zm0.93945 0.66407c-7e-3 6e-3 0.16786 0.12632 0.26953 0.19922 0.28876 0.0919-0.0219-7e-3 0.40039 0.12695-0.36973-0.1915-0.65412-0.34127-0.66992-0.32617zm0.38867 0.27734c0.0345 0.0243 0.22579 0.14644 0.27149 0.17773 0.0414 0.0145 0.0815 0.0325 0.12305 0.0469 0.12433 0.043-0.21311-0.15788-0.33594-0.20508-0.0135-5e-3 -0.0439-0.0135-0.0586-0.0195zm0.42188 0.48828c0.0121 0.0106 0.0249 0.0206 0.0371 0.0312 0.0111 6e-3 9e-3 8e-3 0.0254 0.0156 0.028 0.0135 0.0411 0.0181 0.0684 0.0312 0-0.0163-8.1e-4 -0.0333-8e-3 -0.0508-0.057-0.0151-0.11065-0.0294-0.12305-0.0274zm0.59375 0.17774c0.0437 0.0288 0.10064 0.0662 0.14844 0.0976 0.21396 0.10694 0.34892 0.17417 0.51953 0.26367 0.0667-0.0168 0.13558-0.0236 0.20508-0.0176-0.0327-0.0197-0.0743-0.0526-0.10157-0.0645-0.16759-0.0732-0.48796-0.18349-0.77148-0.27929zm-137.18 0.13671c0.038 0.0959 0.0726 0.19377 0.11133 0.28907 0.0644 0.15862 0.34718 0.58908 0.27148 0.43554-0.12069-0.24493-0.25358-0.48403-0.38281-0.72461zm137.53 0.0938c0.0871 0.0569 0.14349 0.094 0.24219 0.1582 0.0154-7e-3 0.0313-0.0106 0.0469-0.0156-0.0931-0.0469-0.18686-0.0924-0.28906-0.14257zm-137.17 0.47265c-0.0695-0.22328 0.0571 0.3189 0.14258 0.6875 0.0254 0.0603 0.0667 0.14154 0.0976 0.21094-0.0785-0.29984-0.14803-0.60256-0.24023-0.89844zm138.89 0.11914c0.0192 6e-3 0.0395 0.0184 0.0586 0.0234 0.0107 3e-3 0.0223 2e-3 0.0332 4e-3 -0.0207-5e-3 -0.0655-0.0194-0.0918-0.0274zm-138.53 1.0332c0.0521 0.10808 0.11145 0.2104 0.16797 0.3164h0.0332c-0.0554-0.0852-0.14061-0.22245-0.20118-0.3164zm85.838 0.24414c-0.01 0.0236-0.0174 0.0486-0.0274 0.0723h0.14258c-0.0383-0.0242-0.0764-0.0488-0.11523-0.0723zm0.5996 0.0156c8e-3 0.0186 0.0137 0.038 0.0215 0.0566h0.0801c-0.0272-0.0143-0.076-0.0433-0.10157-0.0566zm54.271 13.762c0.18097 0.041 0.2459 0.0492 0.45508 0.0996-0.17375-0.0188-0.32038-0.0551-0.45508-0.0996z" stroke-width=".82415"/>
		<rect x="76" y="230" width="40" height="40"/>
		<rect x="156" y="230" width="40" height="40"/>
		<rect x="236" y="230" width="40" height="40"/>
		<rect x="316" y="230" width="40" height="40"/>
		<rect x="396" y="230" width="40" height="40"/>
		<rect x="76" y="310" width="40" height="40"/>
		<rect x="156" y="310" width="40" height="40"/>
		<rect x="236" y="310" width="40" height="40"/>
		<rect x="76" y="390" width="40" height="40"/>
		<rect x="156" y="390" width="40" height="40"/>
		<rect x="236" y="390" width="40" height="40"/>
		<rect x="396" y="310" width="40" height="40"/>
</g><g transform="matrix(.98614 0 0 1 206.07 200.2)"><path d="m305.6 178.05c-3.2-0.8-6.4 0-9.2 2-10.4 8.8-22.4 16-35.6 20.8-12.4 4.8-26 7.2-40.4 7.2-32.4 0-62-13.2-83.2-34.4s-34.4-50.8-34.4-83.2c0-13.6 2.4-26.8 6.4-38.8 4.4-12.8 10.8-24.4 19.2-34.4 3.6-4.4 2.8-10.8-1.6-14.4-2.8-2-6-2.8-9.2-2-34 9.2-63.6 29.6-84.8 56.8-20.4 26.8-32.8 60-32.8 96.4 0 43.6 17.6 83.2 46.4 112s68.4 46.4 112 46.4c36.8 0 70.8-12.8 98-34 27.6-21.6 47.6-52.4 56-87.6 2-6-1.2-11.6-6.8-12.8zm-61.2 83.6c-23.2 18.4-52.8 29.6-85.2 29.6-38 0-72.4-15.6-97.2-40.4s-40.4-59.2-40.4-97.2c0-31.6 10.4-60.4 28.4-83.6 12.4-16 28-29.2 46-38.4-2 4.4-4 8.8-5.6 13.6-5.2 14.4-7.6 29.6-7.6 45.6 0 38 15.6 72.8 40.4 97.6s59.6 40.4 97.6 40.4c16.8 0 32.8-2.8 47.6-8.4 5.2-2 10.4-4 15.2-6.4-9.6 18.4-22.8 34.8-39.2 47.6z"/></g></svg>

