<?xml version="1.0" encoding="UTF-8" standalone="no"?>
<svg
   xmlns:dc="http://purl.org/dc/elements/1.1/"
   xmlns:cc="http://creativecommons.org/ns#"
   xmlns:rdf="http://www.w3.org/1999/02/22-rdf-syntax-ns#"
   xmlns:svg="http://www.w3.org/2000/svg"
   xmlns="http://www.w3.org/2000/svg"
   id="svg8"
   version="1.1"
   viewBox="0 0 200 200"
   height="200mm"
   width="200mm">
  <defs
     id="defs2" />
  <metadata
     id="metadata5">
    <rdf:RDF>
      <cc:Work
         rdf:about="">
        <dc:format>image/svg+xml</dc:format>
        <dc:type
           rdf:resource="http://purl.org/dc/dcmitype/StillImage" />
        <dc:title></dc:title>
      </cc:Work>
    </rdf:RDF>
  </metadata>
  <g
     transform="translate(-7.5595236,-84.577377)"
     id="layer1">
    <g
       transform="matrix(0.35157788,0,0,0.3515625,17.555586,94.577377)"
       id="g935">
      <path
         style="fill:#415e72"
         d="M 358.584,512 H 153.416 c -21.864,-0.064 -39.568,-17.768 -39.632,-39.632 V 39.632 C 113.848,17.768 131.552,0.064 153.416,0 h 205.168 c 21.864,0.064 39.568,17.768 39.632,39.632 v 432.736 c -0.072,21.856 -17.776,39.56 -39.632,39.632 z"
         id="path817" />
      <rect
         x="132.54401"
         y="40.400002"
         style="fill:#ffffff"
         width="246.912"
         height="403.76001"
         id="rect819" />
      <g
         id="g827">
	<path
   style="fill:#cfdce5"
   d="m 293.032,24.424 h -50.528 c -2.28,-0.008 -4.12,-1.848 -4.128,-4.128 v 0 c 0.008,-2.28 1.848,-4.12 4.128,-4.128 h 50.528 c 2.28,0.008 4.12,1.848 4.128,4.128 v 0 c -0.008,2.28 -1.848,4.12 -4.128,4.128 z"
   id="path821" />

	<circle
   style="fill:#cfdce5"
   cx="218.968"
   cy="20.296"
   r="4.1279998"
   id="circle823" />

	<path
   style="fill:#cfdce5"
   d="m 256,497.6 c -10.784,0 -19.52,-8.736 -19.52,-19.52 0,-10.784 8.736,-19.52 19.52,-19.52 10.784,0 19.52,8.736 19.52,19.52 v 0 c -0.016,10.776 -8.744,19.504 -19.52,19.52 z m 0,-35.048 c -8.568,0 -15.52,6.952 -15.52,15.52 0,8.568 6.952,15.52 15.52,15.52 8.568,0 15.52,-6.952 15.52,-15.52 v 0 c 0.008,-8.584 -6.936,-15.544 -15.52,-15.552 v 0 z"
   id="path825" />

</g>
    </g>
  </g>
  <g
     transform="translate(-7.5595236,-84.577377)"
     style="display:inline"
     id="layer2">
    <g
       transform="matrix(0.11718839,0,0,0.11900186,77.559524,159.5178)"
       id="g955">
      <path
         style="fill:#ff5555"
         d="M 474.39453,122.03125 C 475.9375,56.636719 424.00391,1.21875 358.59375,0.507812 314.80078,0.03125 276.49219,23.605469 255.99609,58.824219 235.49609,23.605469 197.19141,0.0273438 153.39844,0.507812 87.988281,1.21875 36.054688,56.636719 37.597656,122.03125 41.050781,268.16016 215.82422,395.26172 250.17187,418.85156 c 3.51172,2.41406 8.13672,2.41406 11.64844,0 34.34766,-23.58984 209.1211,-150.6914 212.57422,-296.82031 z m 0,0"
         id="path938" />
      <path
         style="fill:#f72b2b"
         d="m 474.45312,117.66016 c 0,147.9414 -177.89843,277.33203 -212.6289,301.18359 -3.51563,2.41406 -8.14453,2.42578 -11.66406,0.0117 -8.55469,-5.875 -25.82422,-18.17188 -46.98438,-35.58203 34.87891,-23.96875 212.53516,-153.28516 212.53516,-301.136721 0,-30.03125 -11.28516,-57.429688 -29.86328,-78.136719 50.90625,12.746094 88.60546,58.78125 88.60546,113.66016 z m 0,0"
         id="path940" />
      <path
         style="fill:#60daff"
         d="m 254.54687,332.15234 c -6.35156,0 -11.80859,-4.51953 -12.98828,-10.76953 l -32.27343,-171.43359 -34.33985,81.60937 c -2,4.75391 -6.57812,7.90625 -11.73047,8.08203 -5.16015,0.17579 -9.9375,-2.66406 -12.2539,-7.26953 L 141.78125,214.125 H 13.214844 C 5.917969,214.125 0,208.20703 0,200.91016 0,193.60937 5.917969,187.69531 13.214844,187.69531 H 149.92578 c 4.96875,0 9.51563,2.78516 11.76953,7.20703 l 40.26953,-95.691402 c 2.26172,-5.378907 7.78516,-8.636719 13.57813,-8.015626 5.80078,0.617188 10.50781,4.960938 11.58984,10.695318 l 26.60938,141.36328 11.01172,-66.14454 c 1.05859,-6.375 6.57031,-11.04687 13.03125,-11.04687 h 43.1289 c 4.46875,0 8.63672,2.25781 11.07422,6 l 20.25,31.08203 8.73438,-10.625 c 2.51171,-3.05469 6.25781,-4.82422 10.21093,-4.82422 h 127.60157 c 7.29687,0 13.21093,5.91797 13.21093,13.21485 0,7.29687 -5.91406,13.21484 -13.21093,13.21484 H 377.42969 l -16.21094,19.72266 c -2.67188,3.25 -6.73828,5.03515 -10.9375,4.80468 -4.20703,-0.23047 -8.04688,-2.45312 -10.34375,-5.98047 l -26.17969,-40.17968 h -24.77344 l -21.40234,128.61328 c -1.05078,6.32031 -6.48828,10.97656 -12.89453,11.04297 -0.0469,0 -0.0977,0.004 -0.14063,0.004 z m 0,0"
         id="path942" />
    </g>
  </g>
  <g
     id="layer3">
    <g
       transform="matrix(0.06083018,0,0,0.05402094,162.45426,14.758458)"
       id="g1117">
      <path
         style="fill:#ffdc64"
         d="M 452.71,157.937 318.969,145.533 265.843,22.17 c -3.72,-8.638 -15.967,-8.638 -19.686,0 L 193.031,145.532 59.29,157.937 c -9.365,0.868 -13.149,12.516 -6.084,18.723 l 100.908,88.646 -29.531,131.029 c -2.068,9.175 7.841,16.373 15.927,11.572 L 256,339.331 371.49,407.907 c 8.087,4.802 17.994,-2.397 15.927,-11.572 L 357.885,265.306 458.794,176.66 c 7.065,-6.207 3.28,-17.855 -6.084,-18.723 z"
         id="path1041" />
      <g
         id="g1053">
	<path
   style="fill:#fff082"
   d="m 119.278,17.923 c 6.818,9.47 26.062,50.14 37.064,73.842 1.73,3.726 -2.945,7.092 -5.93,4.269 C 131.425,78.082 98.96,46.93 92.142,37.459 c -5.395,-7.493 -3.694,-17.941 3.8,-23.336 7.493,-5.395 17.941,-3.693 23.336,3.8 z"
   id="path1043" />

	<path
   style="fill:#fff082"
   d="m 392.722,17.923 c -6.818,9.47 -26.062,50.14 -37.064,73.842 -1.73,3.726 2.945,7.092 5.93,4.269 18.987,-17.952 51.451,-49.105 58.27,-58.575 5.395,-7.493 3.694,-17.941 -3.8,-23.336 -7.493,-5.395 -17.941,-3.693 -23.336,3.8 z"
   id="path1045" />

	<path
   style="fill:#fff082"
   d="m 500.461,295.629 c -11.094,-3.618 -55.689,-9.595 -81.612,-12.875 -4.075,-0.516 -5.861,4.961 -2.266,6.947 22.873,12.635 62.416,34.099 73.51,37.717 8.778,2.863 18.215,-1.932 21.078,-10.711 2.863,-8.779 -1.932,-18.215 -10.71,-21.078 z"
   id="path1047" />

	<path
   style="fill:#fff082"
   d="m 11.539,295.629 c 11.094,-3.618 55.689,-9.595 81.612,-12.875 4.075,-0.516 5.861,4.961 2.266,6.947 -22.873,12.635 -62.416,34.099 -73.51,37.717 -8.778,2.863 -18.215,-1.932 -21.078,-10.711 -2.863,-8.779 1.932,-18.215 10.71,-21.078 z"
   id="path1049" />

	<path
   style="fill:#fff082"
   d="m 239.794,484.31 c 0,-11.669 8.145,-55.919 13.065,-81.582 0.773,-4.034 6.534,-4.034 7.307,0 4.92,25.663 13.065,69.913 13.065,81.582 0,9.233 -7.485,16.718 -16.718,16.718 -9.234,10e-4 -16.719,-7.485 -16.719,-16.718 z"
   id="path1051" />

</g>
      <path
         style="fill:#ffc850"
         d="M 285.161,67.03 265.842,22.17 c -3.72,-8.638 -15.967,-8.638 -19.686,0 L 193.03,145.532 59.29,157.937 c -9.365,0.868 -13.149,12.516 -6.084,18.723 l 100.908,88.646 -29.531,131.029 c -2.068,9.175 7.841,16.373 15.927,11.572 l 15.371,-9.127 C 181.08,235.66 251.922,115.918 285.161,67.03 Z"
         id="path1055" />
      <g
         id="g1057">
</g>
      <g
         id="g1059">
</g>
      <g
         id="g1061">
</g>
      <g
         id="g1063">
</g>
      <g
         id="g1065">
</g>
      <g
         id="g1067">
</g>
      <g
         id="g1069">
</g>
      <g
         id="g1071">
</g>
      <g
         id="g1073">
</g>
      <g
         id="g1075">
</g>
      <g
         id="g1077">
</g>
      <g
         id="g1079">
</g>
      <g
         id="g1081">
</g>
      <g
         id="g1083">
</g>
      <g
         id="g1085">
</g>
    </g>
    <g
       transform="matrix(0.07810627,0,0,0.07143486,-4.3850487,130.56137)"
       id="g1193">
      <g
         id="g1121">
	<path
   id="SVGCleanerId_0_1_"
   style="fill:#f4a32c"
   d="m 506.478,228.585 c -11.078,-2.011 -21.81,-4.751 -31.899,-8.144 -73.954,-24.87 -115.76,-85.293 -129.515,-163.078 -1.306,-7.369 -11.936,-7.37 -13.242,0 -15.986,90.386 -69.19,154.305 -160.955,171.337 -7.298,1.354 -7.296,11.871 0.004,13.222 90.918,16.817 145.053,80.615 160.984,170.28 1.003,5.649 6.968,5.678 6.628,5.547 3.261,-0.004 6.051,-2.35 6.614,-5.561 8.111,-46.239 30.883,-109.059 93.316,-145.737 19.945,-11.706 42.851,-19.994 68.08,-24.637 3.193,-0.587 5.511,-3.373 5.507,-6.62 -0.004,-3.248 -2.328,-6.029 -5.522,-6.609 z" />

</g>
      <path
         style="fill:#e89528"
         d="m 241.129,202.507 c -21.543,13.171 -45.431,21.583 -70.262,26.192 -7.298,1.354 -7.296,11.871 0.004,13.222 90.918,16.817 145.053,80.615 160.984,170.28 1.003,5.649 6.968,5.678 6.628,5.547 3.261,-0.004 6.051,-2.35 6.614,-5.561 4.49,-25.597 13.49,-56.271 31.207,-84.782 -24.038,-66.89 -69.958,-108.527 -135.175,-124.898 z"
         id="path1123" />
    </g>
  </g>
  <g
     id="layer4">
    <g
       transform="matrix(0.26458333,0,0,0.26458333,-177.72467,38.1502)"
       id="g1470">
      <g
         transform="translate(7.1428572,118.57143)"
         id="g1342">
	<circle
   style="fill:#00ddc2"
   cx="1357.0172"
   cy="199.08386"
   r="29.382"
   id="circle1334" />

	
	
	
</g>
      <g
         transform="translate(7.1428572,118.57143)"
         id="g1356">
	
	<path
   style="fill:#00bca1"
   d="m 1389.2563,200.50742 c 0,16.23 -13.156,29.386 -29.386,29.386 -12.877,0 -23.824,-8.285 -27.776,-19.831 4.788,3.395 10.638,5.386 16.942,5.386 16.23,0 29.386,-13.156 29.386,-29.386 0,-3.343 -0.557,-6.552 -1.589,-9.544 7.522,5.324 12.423,14.084 12.423,23.989 z"
   id="path1354" />

</g>
      <circle
         style="fill:#e84661"
         cx="742.91431"
         cy="-27.76757"
         r="20.283001"
         id="circle1358" />
      <g
         transform="translate(237.14286,-232.85715)"
         id="g1364">
	<path
   style="fill:#ce1d4c"
   d="m 526.23,204.74043 c 0,11.195 -9.08,20.275 -20.285,20.275 -9.678,0 -17.768,-6.779 -19.79,-15.838 3.199,2.105 7.016,3.333 11.133,3.333 11.195,0 20.285,-9.08 20.285,-20.285 0,-1.527 -0.165,-3.013 -0.495,-4.437 5.509,3.621 9.152,9.864 9.152,16.952 z"
   id="path1360" />

	
</g>
      <path
         style="fill:#ffe269;stroke-width:0.43379325"
         d="m 1077.6321,579.52962 16.0065,10.48722 c 0.6093,0.39931 1.3655,0.45636 2.0221,0.15286 l 17.2592,-7.97148 c 1.654,-0.76386 3.4202,0.80575 2.9887,2.65612 l -4.5037,19.30768 c -0.1714,0.73489 0.011,1.51168 0.4873,2.07722 l 12.5166,14.86135 c 1.1996,1.42432 0.331,3.68203 -1.4699,3.82063 l -18.7898,1.44571 c -0.7149,0.0548 -1.3588,0.47775 -1.7211,1.13063 l -9.5237,17.1565 c -0.9129,1.64403 -3.2154,1.47022 -3.8969,-0.29458 l -7.1093,-18.41414 c -0.2707,-0.70058 -0.8504,-1.2162 -1.551,-1.37842 l -18.4026,-4.25826 c -1.7637,-0.40823 -2.3182,-2.77333 -0.9387,-4.0029 l 14.396,-12.82648 c 0.5481,-0.488 0.8331,-1.22957 0.7626,-1.98274 l -1.8499,-19.7881 c -0.1765,-1.89627 1.7836,-3.18378 3.3176,-2.17882 z"
         id="path1382" />
    </g>
  </g>
</svg>
