<?xml version="1.0" encoding="UTF-8" standalone="no"?>
<svg
   xmlns:dc="http://purl.org/dc/elements/1.1/"
   xmlns:cc="http://creativecommons.org/ns#"
   xmlns:rdf="http://www.w3.org/1999/02/22-rdf-syntax-ns#"
   xmlns:svg="http://www.w3.org/2000/svg"
   xmlns="http://www.w3.org/2000/svg"
   width="200mm"
   height="200mm"
   viewBox="0 0 200 200"
   version="1.1"
   id="svg909">
  <defs
     id="defs903" />
  <metadata
     id="metadata906">
    <rdf:RDF>
      <cc:Work
         rdf:about="">
        <dc:format>image/svg+xml</dc:format>
        <dc:type
           rdf:resource="http://purl.org/dc/dcmitype/StillImage" />
        <dc:title></dc:title>
      </cc:Work>
    </rdf:RDF>
  </metadata>
  <g
     id="layer1"
     transform="translate(-2.9064361e-6,-96.999969)"
     style="display:none">
    <rect
       style="fill:#536c67;fill-opacity:0.76078431;stroke:none;stroke-width:0.17423503;stroke-opacity:1;paint-order:markers fill stroke"
       id="rect1457"
       width="200"
       height="200"
       x="2.9064361e-06"
       y="96.999969" />
  </g>
  <g
     transform="matrix(1.6666666,0,0,1.7,-66.666663,-70.000001)"
     id="layer4">
    <g
       id="g893"
       transform="matrix(0.206801,0,0,0.1953125,47.058945,50)"
       style="fill:#53676c">
      <g
         id="g6"
         style="fill:#53676c">
        <g
           id="g4"
           style="fill:#53676c">
          <path
             id="path2"
             d="m 298.667,25.6 h -85.333 c -4.71,0 -8.533,3.823 -8.533,8.533 0,4.71 3.823,8.533 8.533,8.533 h 85.333 c 4.71,0 8.533,-3.823 8.533,-8.533 0,-4.71 -3.823,-8.533 -8.533,-8.533 z"
             style="fill:#53676c" />
        </g>
      </g>
      <g
         id="g12"
         style="fill:#53676c">
        <g
           id="g10"
           style="fill:#53676c">
          <path
             id="path8"
             d="m 358.4,25.6 h -8.533 c -4.71,0 -8.533,3.823 -8.533,8.533 0,4.71 3.823,8.533 8.533,8.533 h 8.533 c 4.71,0 8.533,-3.823 8.533,-8.533 0,-4.71 -3.823,-8.533 -8.533,-8.533 z"
             style="fill:#53676c" />
        </g>
      </g>
      <g
         id="g18"
         style="fill:#53676c">
        <g
           id="g16"
           style="fill:#53676c">
          <path
             id="path14"
             d="M 266.598,435.2 H 245.41 c -12.979,0 -23.543,10.564 -23.543,23.543 v 4.122 c 0,12.979 10.564,23.535 23.535,23.535 h 21.188 c 12.979,0 23.543,-10.556 23.543,-23.535 v -4.122 c 0,-12.979 -10.564,-23.543 -23.535,-23.543 z m 6.469,27.665 c 0,3.567 -2.901,6.468 -6.468,6.468 H 245.41 c -3.575,0 -6.477,-2.901 -6.477,-6.468 v -4.122 c 0,-3.575 2.901,-6.477 6.477,-6.477 h 21.18 c 3.576,0 6.477,2.901 6.477,6.477 z"
             style="fill:#53676c" />
        </g>
      </g>
      <g
         id="g24"
         style="fill:#53676c">
        <g
           id="g22"
           style="fill:#53676c">
          <path
             id="path20"
             d="M 370.227,0 H 141.781 c -17.007,0 -30.848,13.841 -30.848,30.848 v 450.304 c 0,17.007 13.841,30.848 30.848,30.848 h 228.437 c 17.007,0 30.848,-13.841 30.848,-30.839 V 30.848 C 401.067,13.841 387.226,0 370.227,0 Z M 384,481.152 c 0,7.595 -6.178,13.781 -13.773,13.781 H 141.781 C 134.178,494.933 128,488.746 128,481.16 V 30.848 c 0,-7.595 6.178,-13.781 13.781,-13.781 h 228.437 c 7.603,0 13.781,6.187 13.781,13.781 v 450.304 z"
             style="fill:#53676c" />
        </g>
      </g>
      <g
         id="g30"
         style="fill:#53676c">
        <g
           id="g28"
           style="fill:#53676c">
          <path
             id="path26"
             d="M 392.533,51.2 H 119.467 c -4.71,0 -8.533,3.823 -8.533,8.533 v 358.4 c 0,4.71 3.823,8.533 8.533,8.533 h 273.067 c 4.71,0 8.533,-3.823 8.533,-8.533 v -358.4 c 0,-4.71 -3.823,-8.533 -8.534,-8.533 z M 384,409.6 H 128 V 68.267 h 256 z"
             style="fill:#53676c" />
        </g>
      </g>
    </g>
  </g>
  <g
     transform="translate(-16.778805,-9.288267)"
     id="layer6">
    <g
       id="g1760"
       transform="matrix(-0.06909748,0,0,-0.06251949,61.534261,54.609253)">
      <g
         id="g1632">
        <circle
           id="circle1624"
           r="29.382"
           cy="481.94101"
           cx="74.160004"
           style="fill:#00ddc2" />
        <circle
           id="circle1626"
           r="29.382"
           cy="113.661"
           cx="482.62"
           style="fill:#00ddc2" />
        <circle
           id="circle1628"
           r="20.283001"
           cy="50.421001"
           cx="26.15"
           style="fill:#00ddc2" />
        <circle
           id="circle1630"
           r="20.283001"
           cy="20.913"
           cx="282.01999"
           style="fill:#00ddc2" />
      </g>
      <circle
         id="circle1634"
         r="20.283001"
         cy="359.83099"
         cx="465.04001"
         style="fill:#e84661" />
      <circle
         id="circle1636"
         r="20.283001"
         cy="452.561"
         cx="353.76001"
         style="fill:#00ddc2" />
      <circle
         id="circle1638"
         r="29.382"
         cy="481.991"
         cx="473.56"
         style="fill:#e84661" />
      <path
         id="path1640"
         d="m 502.942,481.986 c 0,16.23 -13.155,29.386 -29.386,29.386 -12.877,0 -23.824,-8.285 -27.776,-19.831 4.788,3.395 10.638,5.386 16.942,5.386 16.23,0 29.386,-13.156 29.386,-29.386 0,-3.343 -0.557,-6.552 -1.589,-9.544 7.522,5.324 12.423,14.084 12.423,23.989 z"
         style="fill:#ce1d4c" />
      <g
         id="g1646">
        <path
           id="path1642"
           d="m 512,113.657 c 0,16.23 -13.156,29.386 -29.386,29.386 -12.877,0 -23.824,-8.285 -27.776,-19.831 4.788,3.395 10.638,5.386 16.942,5.386 16.23,0 29.386,-13.156 29.386,-29.386 0,-3.343 -0.557,-6.552 -1.589,-9.544 7.522,5.324 12.423,14.084 12.423,23.989 z"
           style="fill:#00bca1" />
        <path
           id="path1644"
           d="m 103.542,481.936 c 0,16.23 -13.156,29.386 -29.386,29.386 -12.877,0 -23.824,-8.285 -27.776,-19.831 4.788,3.395 10.638,5.386 16.942,5.386 16.23,0 29.386,-13.156 29.386,-29.386 0,-3.343 -0.557,-6.552 -1.589,-9.544 7.522,5.324 12.423,14.084 12.423,23.989 z"
           style="fill:#00bca1" />
      </g>
      <circle
         id="circle1648"
         r="20.283001"
         cy="113.661"
         cx="327.20001"
         style="fill:#e84661" />
      <g
         id="g1654">
        <path
           id="path1650"
           d="m 347.48,113.669 c 0,11.195 -9.08,20.275 -20.285,20.275 -9.678,0 -17.768,-6.779 -19.79,-15.838 3.199,2.105 7.016,3.333 11.133,3.333 11.195,0 20.285,-9.08 20.285,-20.285 0,-1.527 -0.165,-3.013 -0.495,-4.437 5.509,3.621 9.152,9.864 9.152,16.952 z"
           style="fill:#ce1d4c" />
        <path
           id="path1652"
           d="m 485.322,359.839 c 0,11.195 -9.08,20.275 -20.285,20.275 -9.678,0 -17.768,-6.779 -19.79,-15.838 3.199,2.105 7.016,3.333 11.133,3.333 11.195,0 20.285,-9.08 20.285,-20.285 0,-1.527 -0.165,-3.013 -0.495,-4.437 5.509,3.621 9.152,9.864 9.152,16.952 z"
           style="fill:#ce1d4c" />
      </g>
      <g
         id="g1662">
        <path
           id="path1656"
           d="m 374.039,452.566 c 0,11.195 -9.08,20.275 -20.285,20.275 -9.678,0 -17.768,-6.779 -19.79,-15.838 3.199,2.105 7.016,3.333 11.133,3.333 11.195,0 20.285,-9.08 20.285,-20.285 0,-1.527 -0.165,-3.013 -0.495,-4.437 5.51,3.622 9.152,9.864 9.152,16.952 z"
           style="fill:#00bca1" />
        <path
           id="path1658"
           d="m 302.308,20.921 c 0,11.195 -9.08,20.275 -20.285,20.275 -9.678,0 -17.768,-6.779 -19.79,-15.838 3.199,2.105 7.016,3.333 11.133,3.333 11.195,0 20.285,-9.08 20.285,-20.285 0,-1.527 -0.165,-3.013 -0.495,-4.437 5.509,3.621 9.152,9.864 9.152,16.952 z"
           style="fill:#00bca1" />
        <path
           id="path1660"
           d="m 46.431,50.43 c 0,11.195 -9.08,20.275 -20.285,20.275 -9.678,0 -17.768,-6.779 -19.79,-15.838 3.199,2.105 7.016,3.333 11.133,3.333 11.195,0 20.285,-9.08 20.285,-20.285 0,-1.527 -0.165,-3.013 -0.495,-4.437 5.51,3.621 9.152,9.863 9.152,16.952 z"
           style="fill:#00bca1" />
      </g>
      <circle
         id="circle1664"
         r="20.283001"
         cy="290.061"
         cx="20.283001"
         style="fill:#e84661" />
      <path
         id="path1666"
         d="m 40.57,290.06 c 0,11.195 -9.08,20.275 -20.285,20.275 -9.678,0 -17.768,-6.779 -19.79,-15.838 3.199,2.105 7.016,3.333 11.133,3.333 11.195,0 20.285,-9.08 20.285,-20.285 0,-1.527 -0.165,-3.013 -0.495,-4.437 5.509,3.621 9.152,9.863 9.152,16.952 z"
         style="fill:#ce1d4c" />
      <path
         id="path1668"
         d="m 110.688,58.22 45.429,50.886 c 1.131,1.267 2.813,1.896 4.497,1.682 l 67.673,-8.575 c 4.242,-0.538 7.259,4.023 5.105,7.717 l -34.357,58.93 c -0.855,1.467 -0.934,3.261 -0.21,4.797 l 29.068,61.711 c 1.822,3.868 -1.582,8.147 -5.761,7.24 l -66.663,-14.465 c -1.659,-0.36 -3.39,0.119 -4.627,1.282 l -49.709,46.715 c -3.116,2.928 -8.237,1.012 -8.666,-3.242 l -6.843,-67.87 c -0.17,-1.689 -1.161,-3.187 -2.649,-4.004 l -59.789,-32.84 c -3.748,-2.059 -3.508,-7.521 0.405,-9.244 l 62.434,-27.481 c 1.554,-0.684 2.672,-2.089 2.99,-3.757 l 12.757,-67.011 c 0.8,-4.201 6.069,-5.661 8.916,-2.471 z"
         style="fill:#ffe269" />
      <path
         id="path1670"
         d="m 199.034,168.864 c -0.856,1.465 -0.929,3.261 -0.206,4.788 l 29.066,61.712 c 1.816,3.869 -1.579,8.151 -5.758,7.243 l -23.721,-5.149 -23.36,-49.589 c -0.722,-1.537 -0.64,-3.333 0.217,-4.798 l 34.359,-58.926 c 2.146,-3.694 -0.867,-8.254 -5.108,-7.718 l -67.676,8.574 c -1.682,0.217 -3.364,-0.413 -4.499,-1.682 L 97.319,84.081 101.776,60.69 c 0.795,-4.199 6.067,-5.665 8.915,-2.466 l 45.43,50.878 c 1.125,1.269 2.806,1.898 4.488,1.682 l 67.676,-8.574 c 4.241,-0.537 7.264,4.024 5.107,7.718 z"
         style="fill:#f7d443" />
      <path
         id="path1672"
         d="m 164.299,322.823 37.908,23.532 c 1.443,0.896 3.234,1.024 4.789,0.343 l 40.875,-17.887 c 3.917,-1.714 8.1,1.808 7.078,5.96 l -10.666,43.324 c -0.406,1.649 0.025,3.392 1.154,4.661 l 29.643,33.347 c 2.841,3.196 0.784,8.262 -3.481,8.573 l -44.5,3.244 c -1.693,0.123 -3.218,1.072 -4.076,2.537 l -22.555,38.497 c -2.162,3.689 -7.615,3.299 -9.229,-0.661 l -16.837,-41.319 c -0.641,-1.572 -2.014,-2.729 -3.673,-3.093 l -43.583,-9.555 c -4.177,-0.916 -5.49,-6.223 -2.223,-8.982 l 34.094,-28.781 c 1.298,-1.095 1.973,-2.759 1.806,-4.449 l -4.381,-44.402 c -0.418,-4.255 4.224,-7.144 7.857,-4.889 z"
         style="fill:#ffe269" />
      <path
         id="path1674"
         d="m 271.601,424.679 -25.331,1.847 -20.378,-22.916 c -1.135,-1.269 -1.558,-3.013 -1.156,-4.664 l 10.669,-43.325 c 1.021,-4.148 -3.168,-7.677 -7.078,-5.964 l -40.88,17.891 c -1.558,0.681 -3.343,0.557 -4.788,-0.34 l -23.773,-14.765 -2.445,-24.732 c -0.413,-4.251 4.22,-7.14 7.862,-4.891 l 37.908,23.535 c 1.434,0.898 3.23,1.021 4.788,0.341 l 40.87,-17.881 c 3.921,-1.723 8.1,1.806 7.078,5.954 l -10.669,43.325 c -0.402,1.651 0.031,3.395 1.156,4.664 l 29.644,33.348 c 2.848,3.187 0.784,8.254 -3.477,8.573 z"
         style="fill:#f7d443" />
      <path
         id="path1676"
         d="m 411.627,143.225 7.132,58.039 c 0.207,1.685 1.23,3.161 2.736,3.946 l 51.854,27.028 c 3.792,1.976 3.671,7.443 -0.204,9.25 l -52.994,24.718 c -1.539,0.718 -2.626,2.147 -2.907,3.821 l -9.681,57.668 c -0.708,4.217 -5.944,5.792 -8.861,2.665 l -39.884,-42.762 c -1.158,-1.242 -2.853,-1.834 -4.533,-1.584 l -57.837,8.613 c -4.229,0.63 -7.345,-3.863 -5.272,-7.603 l 28.344,-51.146 c 0.823,-1.485 0.863,-3.28 0.106,-4.8 l -26.064,-52.345 c -1.906,-3.828 1.405,-8.179 5.602,-7.364 l 57.402,11.152 c 1.667,0.324 3.386,-0.193 4.598,-1.383 l 41.729,-40.964 c 3.05,-2.997 8.212,-1.193 8.734,3.051 z"
         style="fill:#ffe269" />
      <path
         id="path1678"
         d="m 473.143,241.483 -52.993,24.722 c -1.537,0.722 -2.621,2.146 -2.91,3.818 l -9.678,57.667 c -0.712,4.22 -5.943,5.799 -8.863,2.672 l -18.387,-19.718 7.615,-45.358 c 0.279,-1.682 1.362,-3.106 2.91,-3.828 l 52.994,-24.712 c 3.869,-1.816 3.993,-7.274 0.196,-9.255 l -51.848,-27.023 c -1.506,-0.784 -2.528,-2.26 -2.734,-3.952 l -4.736,-38.497 18.18,-17.85 c 3.054,-2.992 8.213,-1.187 8.74,3.054 l 7.13,58.039 c 0.206,1.682 1.228,3.157 2.734,3.941 l 51.858,27.033 c 3.785,1.983 3.672,7.441 -0.208,9.247 z"
         style="fill:#f7d443" />
      <g
         id="g1680" />
      <g
         id="g1682" />
      <g
         id="g1684" />
      <g
         id="g1686" />
      <g
         id="g1688" />
      <g
         id="g1690" />
      <g
         id="g1692" />
      <g
         id="g1694" />
      <g
         id="g1696" />
      <g
         id="g1698" />
      <g
         id="g1700" />
      <g
         id="g1702" />
      <g
         id="g1704" />
      <g
         id="g1706" />
      <g
         id="g1708" />
    </g>
  </g>
  <g
     transform="translate(8.0897809,-22.171992)"
     id="layer7">
    <g
       id="g1837"
       transform="matrix(0.06304525,0,0,0.06230334,154.13868,62.908995)">
      <path
         d="m 506.478,228.585 c -11.078,-2.011 -21.81,-4.751 -31.899,-8.144 -73.954,-24.87 -115.76,-85.293 -129.515,-163.078 -1.306,-7.369 -11.936,-7.37 -13.242,0 -15.986,90.386 -69.19,154.305 -160.955,171.337 -7.298,1.354 -7.296,11.871 0.004,13.222 90.918,16.817 145.053,80.615 160.984,170.28 1.003,5.649 6.968,5.678 6.628,5.547 3.261,-0.004 6.051,-2.35 6.614,-5.561 8.111,-46.239 30.883,-109.059 93.316,-145.737 19.945,-11.706 42.851,-19.994 68.08,-24.637 3.193,-0.587 5.511,-3.373 5.507,-6.62 -0.004,-3.248 -2.328,-6.029 -5.522,-6.609 z"
         style="fill:#f4a32c"
         id="SVGCleanerId_0" />
      <g
         id="g1765">
        <path
           d="m 506.478,228.585 c -11.078,-2.011 -21.81,-4.751 -31.899,-8.144 -73.954,-24.87 -115.76,-85.293 -129.515,-163.078 -1.306,-7.369 -11.936,-7.37 -13.242,0 -15.986,90.386 -69.19,154.305 -160.955,171.337 -7.298,1.354 -7.296,11.871 0.004,13.222 90.918,16.817 145.053,80.615 160.984,170.28 1.003,5.649 6.968,5.678 6.628,5.547 3.261,-0.004 6.051,-2.35 6.614,-5.561 8.111,-46.239 30.883,-109.059 93.316,-145.737 19.945,-11.706 42.851,-19.994 68.08,-24.637 3.193,-0.587 5.511,-3.373 5.507,-6.62 -0.004,-3.248 -2.328,-6.029 -5.522,-6.609 z"
           style="fill:#f4a32c"
           id="SVGCleanerId_0_1_" />
      </g>
      <path
         id="path1767"
         d="m 241.129,202.507 c -21.543,13.171 -45.431,21.583 -70.262,26.192 -7.298,1.354 -7.296,11.871 0.004,13.222 90.918,16.817 145.053,80.615 160.984,170.28 1.003,5.649 6.968,5.678 6.628,5.547 3.261,-0.004 6.051,-2.35 6.614,-5.561 4.49,-25.597 13.49,-56.271 31.207,-84.782 -24.038,-66.89 -69.958,-108.527 -135.175,-124.898 z"
         style="fill:#e89528" />
      <path
         id="path1769"
         d="m 211.126,403.012 c -26.161,-8.676 -43.466,-28.172 -51.886,-55.116 -1.513,-4.837 -6.612,-4.784 -6.418,-4.717 -2.939,0 -5.538,1.91 -6.416,4.713 -8.158,26.042 -25.23,45.966 -51.887,55.093 -6.041,2.069 -6.047,10.651 10e-4,12.722 26.484,9.066 43.667,28.833 51.894,55.121 1.518,4.848 6.608,4.777 6.429,4.715 2.944,-0.005 5.542,-1.925 6.412,-4.738 6.084,-19.677 16.817,-34.891 31.901,-45.219 0.001,-0.001 0.001,-0.001 0.001,-0.001 16.491,-11.298 24.587,-8.02 24.575,-16.202 -0.003,-2.894 -1.859,-5.46 -4.606,-6.371 z"
         style="fill:#f7e7a1" />
      <path
         id="path1771"
         d="m 121.326,388.419 c -0.189,-0.065 -0.365,-0.155 -0.545,-0.236 -7.735,6.646 -16.613,11.499 -26.261,14.803 -6.041,2.069 -6.047,10.651 0.001,12.722 26.484,9.066 43.667,28.833 51.894,55.121 1.518,4.848 6.608,4.777 6.429,4.715 9.468,-0.017 4.432,-11.326 20.208,-32.508 -8.391,-26.347 -25.671,-45.698 -51.726,-54.617 z"
         style="fill:#ead786" />
      <path
         id="path1773"
         d="M 121.152,96.29 C 94.888,87.58 77.657,68.009 69.265,41.174 c -1.512,-4.837 -6.61,-4.783 -6.417,-4.717 -2.939,0 -5.538,1.91 -6.416,4.713 -8.141,25.987 -25.177,45.945 -51.887,55.094 -6.041,2.069 -6.047,10.651 0.001,12.722 26.549,9.089 43.688,28.903 51.894,55.12 1.518,4.848 6.61,4.778 6.428,4.715 2.944,-0.005 5.543,-1.925 6.413,-4.736 10.073,-32.577 30.358,-43.691 31.904,-45.22 16.444,-11.268 24.585,-8.064 24.574,-16.202 -0.005,-2.896 -1.861,-5.462 -4.607,-6.373 z"
         style="fill:#f4d44e" />
      <path
         id="path1775"
         d="M 28.756,83.146 C 10.22,97.965 0,93.822 0,102.625 c 0,2.875 1.827,5.43 4.546,6.36 26.549,9.089 43.688,28.903 51.894,55.12 1.518,4.848 6.61,4.778 6.428,4.715 8.995,-0.016 4.673,-10.519 18.945,-30.788 C 67.12,92.671 32.076,85.316 28.756,83.146 Z"
         style="fill:#e8c842" />
      <g
         id="g1777" />
      <g
         id="g1779" />
      <g
         id="g1781" />
      <g
         id="g1783" />
      <g
         id="g1785" />
      <g
         id="g1787" />
      <g
         id="g1789" />
      <g
         id="g1791" />
      <g
         id="g1793" />
      <g
         id="g1795" />
      <g
         id="g1797" />
      <g
         id="g1799" />
      <g
         id="g1801" />
      <g
         id="g1803" />
      <g
         id="g1805" />
    </g>
  </g>
  <g
     transform="translate(-9.288267,-7.1909164)"
     id="layer8">
    <g
       id="g1882"
       transform="matrix(0.08666876,0,0,0.074857,12.240634,114.62228)">
      <g
         id="g1842">
        <path
           id="path1840"
           d="m 309.1,166 c 30.6,0 51.9,25.8 51.9,56.4 0,42.3 -43.5,70.2 -105,123.6 -61.5,-53.4 -102.6,-81.3 -102.6,-123.6 0,-30.6 21,-56.4 51.9,-56.4 39.3,0 50.7,48 50.7,48 0,0 13.5,-48 53.1,-48 z"
           style="fill:#ffa2c3" />
      </g>
      <g
         id="g1880">
        <path
           id="path1844"
           d="m 387.241,138.901 45.54,-45.54 c 3.905,-3.905 3.905,-10.237 0,-14.143 -3.906,-3.905 -10.236,-3.905 -14.143,0 l -45.54,45.54 c -3.905,3.905 -3.905,10.237 0,14.143 3.906,3.905 10.237,3.906 14.143,0 z" />
        <path
           id="path1846"
           d="m 93.361,432.781 78.76,-78.76 c 3.905,-3.905 3.905,-10.237 0,-14.143 -3.905,-3.905 -10.237,-3.905 -14.143,0 l -78.76,78.76 c -3.905,3.905 -3.905,10.237 0,14.143 3.905,3.905 10.238,3.906 14.143,0 z" />
        <path
           id="path1848"
           d="m 432.781,432.781 c 3.905,-3.905 3.905,-10.237 0,-14.143 l -78.49,-78.49 c -3.906,-3.905 -10.236,-3.904 -14.143,0 -3.905,3.905 -3.905,10.237 0,14.143 l 78.49,78.49 c 3.906,3.905 10.237,3.906 14.143,0 z" />
        <path
           id="path1850"
           d="m 125.869,140.011 c 3.905,3.905 10.237,3.905 14.143,0 3.905,-3.905 3.905,-10.237 0,-14.143 l -46.65,-46.65 c -3.905,-3.904 -10.237,-3.904 -14.143,0 -3.905,3.905 -3.905,10.237 0,14.143 z" />
        <path
           id="path1852"
           d="m 459.249,340.187 c 2.113,-5.103 -0.31,-10.952 -5.412,-13.065 l -64.34,-26.65 c -5.104,-2.113 -10.951,0.309 -13.066,5.412 -2.113,5.103 0.31,10.952 5.412,13.065 l 64.34,26.65 c 5.113,2.118 10.956,-0.321 13.066,-5.412 z" />
        <path
           id="path1854"
           d="m 58.164,184.879 35.54,14.72 c 5.101,2.114 10.953,-0.31 13.065,-5.412 2.113,-5.103 -0.31,-10.952 -5.412,-13.065 l -35.54,-14.72 c -5.104,-2.116 -10.953,0.31 -13.065,5.412 -2.114,5.102 0.309,10.952 5.412,13.065 z" />
        <path
           id="path1856"
           d="m 171.813,459.249 c 5.114,2.118 10.957,-0.321 13.066,-5.412 l 28.71,-69.31 c 2.114,-5.103 -0.31,-10.952 -5.412,-13.066 -5.104,-2.114 -10.952,0.31 -13.066,5.412 l -28.71,69.31 c -2.113,5.102 0.31,10.952 5.412,13.066 z" />
        <path
           id="path1858"
           d="m 314.164,115.589 c 5.113,2.117 10.957,-0.322 13.065,-5.413 l 18.37,-44.36 c 2.113,-5.103 -0.311,-10.952 -5.413,-13.065 -5.102,-2.112 -10.952,0.311 -13.065,5.413 l -18.37,44.36 c -2.113,5.102 0.311,10.952 5.413,13.065 z" />
        <path
           id="path1860"
           d="m 298.422,384.557 28.7,69.28 c 2.11,5.095 7.956,7.527 13.065,5.412 5.103,-2.114 7.525,-7.964 5.411,-13.066 l -28.7,-69.28 c -2.113,-5.103 -7.966,-7.524 -13.065,-5.412 -5.103,2.114 -7.525,7.964 -5.411,13.066 z" />
        <path
           id="path1862"
           d="m 184.861,110.377 c 2.111,5.095 7.956,7.528 13.066,5.412 5.103,-2.114 7.525,-7.964 5.412,-13.066 l -18.46,-44.56 c -2.114,-5.102 -7.965,-7.524 -13.066,-5.412 -5.103,2.114 -7.525,7.964 -5.412,13.066 z" />
        <path
           id="path1864"
           d="m 136.749,305.393 c -2.114,-5.103 -7.963,-7.527 -13.065,-5.412 l -65.52,27.14 c -5.103,2.114 -7.526,7.963 -5.412,13.066 2.118,5.113 7.976,7.521 13.065,5.412 l 65.52,-27.14 c 5.102,-2.114 7.525,-7.963 5.412,-13.066 z" />
        <path
           id="path1866"
           d="m 407.391,193.285 c 2.113,5.104 7.963,7.527 13.064,5.414 l 33.38,-13.82 c 5.103,-2.112 7.527,-7.962 5.414,-13.064 -2.112,-5.103 -7.961,-7.527 -13.064,-5.414 l -33.38,13.82 c -5.103,2.112 -7.528,7.962 -5.414,13.064 z" />
        <path
           id="path1868"
           d="m 502,246 h -85.65 c -5.522,0 -10,4.477 -10,10 0,5.523 4.478,10 10,10 H 502 c 5.522,0 10,-4.477 10,-10 0,-5.523 -4.478,-10 -10,-10 z" />
        <path
           id="path1870"
           d="m 10,266 h 87.99 c 5.523,0 10,-4.477 10,-10 0,-5.523 -4.477,-10 -10,-10 H 10 c -5.523,0 -10,4.477 -10,10 0,5.523 4.477,10 10,10 z" />
        <path
           id="path1872"
           d="M 246,410.47 V 502 c 0,5.523 4.478,10 10,10 5.522,0 10,-4.477 10,-10 v -91.53 c 0,-5.523 -4.478,-10 -10,-10 -5.522,0 -10,4.477 -10,10 z" />
        <path
           id="path1874"
           d="m 256,129.75 c 5.522,0 10,-4.477 10,-10 V 10 C 266,4.477 261.522,0 256,0 250.478,0 246,4.477 246,10 v 109.75 c 0,5.523 4.478,10 10,10 z" />
        <circle
           id="circle1876"
           r="10"
           cy="295.5"
           cx="315.5" />
        <path
           id="path1878"
           d="m 249.443,353.551 c 1.881,1.633 4.219,2.449 6.557,2.449 2.338,0 4.676,-0.816 6.557,-2.449 9.092,-7.896 17.697,-15.149 25.05,-21.33 4.228,-3.553 4.774,-9.861 1.221,-14.089 -3.556,-4.228 -9.862,-4.773 -14.09,-1.22 -5.623,4.726 -11.976,10.078 -18.733,15.876 C 199.267,283.973 163.4,258.221 163.4,222.4 c 0,-26.452 18.013,-46.4 41.9,-46.4 12.544,0 23.114,6.396 31.415,19.009 6.86,10.423 9.536,21.22 9.556,21.302 1.053,4.433 4.97,7.594 9.524,7.687 4.547,0.091 8.599,-2.904 9.832,-7.291 C 265.741,216.3 277.441,176 309.1,176 c 23.887,0 41.9,19.948 41.9,46.4 0,11.707 -4.026,22.679 -12.671,34.53 -3.255,4.462 -2.276,10.717 2.186,13.972 4.461,3.253 10.717,2.277 13.973,-2.186 C 365.599,253.483 371,238.333 371,222.4 371,204.842 364.96,188.39 353.993,176.075 342.465,163.129 326.521,156 309.1,156 c -26.857,0 -43.372,17.585 -52.672,32.936 -0.818,-1.444 -1.698,-2.905 -2.644,-4.367 C 241.693,165.879 224.928,156 205.3,156 c -17.542,0 -33.53,7.135 -45.019,20.09 -10.886,12.274 -16.881,28.721 -16.881,46.31 0,47.886 44.728,77.91 106.043,131.151 z" />
      </g>
    </g>
  </g>
  <g
     transform="translate(32.059502,2.9962152)"
     id="layer9">
    <g
       data-name="Planet"
       id="Planet-2"
       transform="matrix(0.44727185,0,0,0.44727186,131.12066,138.01571)">
      <circle
         id="circle2002"
         r="1"
         cy="48"
         cx="60"
         style="fill:#bddbff" />
      <circle
         id="circle2004"
         r="1"
         cy="17"
         cx="4"
         style="fill:#bddbff" />
      <path
         id="path2006"
         d="m 46,17 a 3,3 0 1 0 -3,3 3,3 0 0 0 3,-3 z m -4,34 a 8,8 0 1 0 -8,-8 8,8 0 0 0 8,8 z M 8,32 A 24,24 0 0 1 29.12,8.18 2.757,2.757 0 0 0 29,9 3,3 0 0 0 35,9 2.757,2.757 0 0 0 34.88,8.18 23.963,23.963 0 0 1 53.88,22.16 4,4 0 0 0 55,30 3.909,3.909 0 0 0 55.91,29.89 C 55.97,30.58 56,31.29 56,32 A 24,24 0 0 1 32.47,55.99 4,4 0 1 0 25,54 3.636,3.636 0 0 0 25.13,54.99 23.911,23.911 0 0 1 14.11,47.99 4,4 0 1 0 10.36,42.37 23.875,23.875 0 0 1 8,32 Z m 3,-4 a 1,1 0 1 0 1,1 1,1 0 0 0 -1,-1 z m 27,-2 a 1,1 0 1 0 -1,1 1,1 0 0 0 1,-1 z M 28,42 a 1,1 0 1 0 -1,1 1,1 0 0 0 1,-1 z m 0,-20 a 5,5 0 1 0 -5,5 5,5 0 0 0 5,-5 z m -3,12 a 2,2 0 1 0 -2,2 2.006,2.006 0 0 0 2,-2 z"
         style="fill:#bddbff" />
      <g
         id="g2052"
         style="fill:#3d9ae2">
        <path
           id="path2008"
           d="m 56.906,29.8 a 24.508,24.508 0 0 0 -2.114,-8.052 25.05,25.05 0 0 0 -19.785,-14.56 24.278,24.278 0 0 0 -6,0 A 24.989,24.989 0 0 0 7,32 25.008,25.008 0 0 0 24.839,55.947 24.592,24.592 0 0 0 32,57 c 0.183,0 0.365,0 0.489,-0.01 A 25.12,25.12 0 0 0 57,32 c 0,-0.738 -0.031,-1.477 -0.094,-2.2 z m -3.56,-6.3 A 22.484,22.484 0 0 1 54.784,28.977 2.988,2.988 0 0 1 53.346,23.5 Z M 32,9 c 0.67,0 1.333,0.041 1.99,0.1 a 1.992,1.992 0 0 1 -3.98,0 C 30.665,9.04 31.328,9 32,9 Z M 11.489,42.372 A 2.969,2.969 0 0 1 14,41 2.991,2.991 0 0 1 14.533,46.935 22.925,22.925 0 0 1 11.489,42.372 Z M 26,54 a 3,3 0 0 1 6,0 2.974,2.974 0 0 1 -0.192,0.993 22.6,22.6 0 0 1 -5.783,-0.8 C 26.02,54.126 26,54.07 26,54 Z m 16,-4 a 7,7 0 1 1 7,-7 7.008,7.008 0 0 1 -7,7 z m 8.683,-4.67 a 9.07,9.07 0 1 0 -7.183,6.534 22.83,22.83 0 0 1 -9.6,3.044 4.984,4.984 0 1 0 -9.864,-1.336 22.878,22.878 0 0 1 -8,-5.019 A 4.994,4.994 0 0 0 14,39 4.969,4.969 0 0 0 10.584,40.364 22.721,22.721 0 0 1 9,32 23.306,23.306 0 0 1 9.124,29.671 2,2 0 1 0 9.383,27.833 22.976,22.976 0 0 1 28.038,9.374 3.978,3.978 0 0 0 35.964,9.357 23.059,23.059 0 0 1 52.528,21.672 4.986,4.986 0 0 0 54.957,31 C 54.971,31.335 55,31.666 55,32 a 22.79,22.79 0 0 1 -4.317,13.33 z" />
        <path
           id="path2010"
           d="m 23,16 a 6,6 0 1 0 6,6 6.006,6.006 0 0 0 -6,-6 z m 0,10 a 4,4 0 1 1 4,-4 4,4 0 0 1 -4,4 z" />
        <path
           id="path2012"
           d="m 43,19 a 2,2 0 0 1 0,-4 v -2 a 4,4 0 1 0 4,4 h -2 a 2,2 0 0 1 -2,2 z" />
        <path
           id="path2014"
           d="m 23,35 v 2 a 3,3 0 1 0 -3,-3 h 2 a 1,1 0 1 1 1,1 z" />
        <circle
           id="circle2016"
           r="2"
           cy="26"
           cx="37" />
        <circle
           id="circle2018"
           r="2"
           cy="42"
           cx="27" />
        <path
           id="path2020"
           transform="matrix(0.5,-0.866,0.866,0.5,17.291,43.716)"
           d="m 45.5,5.885 h 2 v 2 h -2 z" />
        <path
           id="path2022"
           transform="matrix(0.707,-0.707,0.707,0.707,7.251,40.494)"
           d="m 51.506,10.494 h 2 v 2 h -2 z" />
        <path
           id="path2024"
           transform="matrix(0.866,-0.5,0.5,0.866,-1.096,30.911)"
           d="m 56.115,16.5 h 1.999 v 1.999 h -1.999 z" />
        <path
           id="path2026"
           transform="matrix(0.966,-0.259,0.259,0.966,-4.295,16.367)"
           d="m 59.012,23.494 h 2 v 2 h -2 z" />
        <path
           id="path2028"
           transform="matrix(0.5,-0.866,0.866,0.5,-40.714,43.718)"
           d="m 16.5,56.115 h 2 v 2 h -2 z" />
        <path
           id="path2030"
           transform="matrix(0.707,-0.707,0.707,0.707,-33.761,23.506)"
           d="m 10.494,51.506 h 2 v 2 h -2 z" />
        <path
           id="path2032"
           transform="matrix(0.866,-0.5,0.5,0.866,-22.333,9.677)"
           d="m 5.886,45.5 h 1.999 v 1.999 H 5.886 Z" />
        <path
           id="path2034"
           transform="matrix(0.966,-0.259,0.259,0.966,-10.089,2.378)"
           d="m 2.988,38.506 h 2 v 2 h -2 z" />
        <path
           id="path2036"
           d="M 4,8 H 6 V 6 H 8 V 4 H 6 V 2 H 4 V 4 H 2 v 2 h 2 z" />
        <path
           id="path2038"
           d="m 57,53 h -2 v 2 h -2 v 2 h 2 v 2 h 2 v -2 h 2 v -2 h -2 z" />
        <path
           id="path2040"
           d="m 59,3 h 2 v 2 h -2 z" />
        <path
           id="path2042"
           d="m 16,4 h 2 v 2 h -2 z" />
        <path
           id="path2044"
           d="m 31,2 h 2 v 2 h -2 z" />
        <path
           id="path2046"
           d="m 45,60 h 2 v 2 h -2 z" />
        <circle
           id="circle2048"
           r="2"
           cy="48"
           cx="60" />
        <circle
           id="circle2050"
           r="2"
           cy="17"
           cx="4" />
      </g>
    </g>
  </g>
  <g
     transform="matrix(1.3175643,0,0,1.2918299,-32.968121,-26.530137)"
     id="layer10">
    <path
       id="path2091"
       d="m 95.360738,117.29882 h -4.52125 c -4.90429,0 -8.89425,-4.06944 -8.89425,-9.07143 V 95.829765 c 0,-5.00199 3.98996,-9.07143 8.89425,-9.07143 H 110.9998 c 4.90429,0 8.89425,4.06944 8.89425,9.07143 v 4.535715 c 0,0.83503 -0.66366,1.51191 -1.48238,1.51191 -0.81871,0 -1.48237,-0.67688 -1.48237,-1.51191 v -4.535715 c 0,-3.33466 -2.65998,-6.04762 -5.9295,-6.04762 H 90.839488 c -3.26953,0 -5.9295,2.71296 -5.9295,6.04762 v 12.397625 c 0,3.33466 2.65997,6.04762 5.9295,6.04762 h 4.52125 c 0.81871,0 1.48237,0.67688 1.48237,1.51191 0,0.83502 -0.66366,1.5119 -1.48237,1.5119 z m 1.55649,-34.169055 c 0,-2.501 -1.99498,-4.53572 -4.44713,-4.53572 -2.45214,0 -4.44712,2.03472 -4.44712,4.53572 0,0.83502 0.66366,1.5119 1.48237,1.5119 0.81872,0 1.48238,-0.67688 1.48238,-1.5119 0,-0.83367 0.66499,-1.51191 1.48237,-1.51191 0.81739,0 1.48238,0.67824 1.48238,1.51191 0,0.83502 0.66366,1.5119 1.48238,1.5119 0.81871,0 1.48237,-0.67688 1.48237,-1.5119 z m 17.047322,0 c 0,-2.501 -1.99498,-4.53572 -4.44713,-4.53572 -2.45214,0 -4.44713,2.03472 -4.44713,4.53572 0,0.83502 0.66366,1.5119 1.48238,1.5119 0.81872,0 1.48237,-0.67688 1.48237,-1.5119 0,-0.83367 0.665,-1.51191 1.48238,-1.51191 0.81738,0 1.48238,0.67824 1.48238,1.51191 0,0.83502 0.66366,1.5119 1.48237,1.5119 0.81872,0 1.48238,-0.67688 1.48238,-1.5119 z m 5.9295,29.557745 v -3.99324 c 0,-2.55006 -2.03404,-4.62462 -4.53429,-4.62462 h -3.91525 c -0.81872,0 -1.48238,0.67688 -1.48238,1.51191 0,0.83502 0.66366,1.5119 1.48238,1.5119 h 3.91525 c 0.86541,0 1.56954,0.71816 1.56954,1.60081 v 3.99324 c 0,0.83502 0.66366,1.5119 1.48237,1.5119 0.81872,0 1.48238,-0.67688 1.48238,-1.5119 z m -5.15459,-0.92204 c 0.56538,-0.60385 0.54373,-1.56089 -0.0483,-2.1376 -0.59206,-0.57664 -1.5304,-0.55457 -2.09585,0.0493 -2.73587,2.92198 -6.57693,4.59785 -10.53828,4.59785 h -0.69264 c -0.81872,0 -1.482382,0.67688 -1.482382,1.51191 0,0.83502 0.663662,1.5119 1.482382,1.5119 h 0.69264 c 4.76739,0 9.38996,-2.0168 12.68246,-5.53335 z M 91.654798,93.864285 c -1.02336,0 -1.85297,0.84614 -1.85297,1.88988 0,1.04375 0.82961,1.88989 1.85297,1.88989 1.02336,0 1.85297,-0.84614 1.85297,-1.88989 0,-1.04374 -0.82961,-1.88988 -1.85297,-1.88988 z m 6.37421,0 c -1.02336,0 -1.85297,0.84614 -1.85297,1.88988 0,1.04375 0.82961,1.88989 1.85297,1.88989 1.02336,0 1.85297,-0.84614 1.85297,-1.88989 0,-1.04374 -0.82961,-1.88988 -1.85297,-1.88988 z m 6.374222,0 c -1.02336,0 -1.85297,0.84614 -1.85297,1.88988 0,1.04375 0.82961,1.88989 1.85297,1.88989 1.02335,0 1.85296,-0.84614 1.85296,-1.88989 0,-1.04374 -0.82961,-1.88988 -1.85296,-1.88988 z m 6.37421,0 c -1.02336,0 -1.85297,0.84614 -1.85297,1.88988 0,1.04375 0.82961,1.88989 1.85297,1.88989 1.02336,0 1.85297,-0.84614 1.85297,-1.88989 0,-1.04374 -0.82961,-1.88988 -1.85297,-1.88988 z m -19.122642,6.501195 c -1.02336,0 -1.85297,0.84614 -1.85297,1.88988 0,1.04375 0.82961,1.88989 1.85297,1.88989 1.02336,0 1.85297,-0.84614 1.85297,-1.88989 0,-1.04374 -0.82961,-1.88988 -1.85297,-1.88988 z m 0,6.50119 c -1.02336,0 -1.85297,0.84614 -1.85297,1.88989 0,1.04374 0.82961,1.88988 1.85297,1.88988 1.02336,0 1.85297,-0.84614 1.85297,-1.88988 0,-1.04375 -0.82961,-1.88989 -1.85297,-1.88989 z m 6.37421,-6.50119 c -1.02336,0 -1.85297,0.84614 -1.85297,1.88988 0,1.04375 0.82961,1.88989 1.85297,1.88989 1.02336,0 1.85297,-0.84614 1.85297,-1.88989 0,-1.04374 -0.82961,-1.88988 -1.85297,-1.88988 z m 0,6.50119 c -1.02336,0 -1.85297,0.84614 -1.85297,1.88989 0,1.04374 0.82961,1.88988 1.85297,1.88988 1.02336,0 1.85297,-0.84614 1.85297,-1.88988 0,-1.04375 -0.82961,-1.88989 -1.85297,-1.88989 z m 6.374222,-6.50119 c -1.02336,0 -1.85297,0.84614 -1.85297,1.88988 0,1.04375 0.82961,1.88989 1.85297,1.88989 1.02335,0 1.85296,-0.84614 1.85296,-1.88989 0,-1.04374 -0.82961,-1.88988 -1.85296,-1.88988 z"
       style="fill:#53676c;stroke-width:0.07485337" />
  </g>
</svg>
