<?xml version="1.0" encoding="UTF-8" standalone="no"?>
<svg
   xmlns:dc="http://purl.org/dc/elements/1.1/"
   xmlns:cc="http://creativecommons.org/ns#"
   xmlns:rdf="http://www.w3.org/1999/02/22-rdf-syntax-ns#"
   xmlns:svg="http://www.w3.org/2000/svg"
   xmlns="http://www.w3.org/2000/svg"
   xmlns:sodipodi="http://sodipodi.sourceforge.net/DTD/sodipodi-0.dtd"
   xmlns:inkscape="http://www.inkscape.org/namespaces/inkscape"
   id="svg8"
   version="1.1"
   viewBox="0 0 200 200"
   height="200mm"
   width="200mm"
   sodipodi:docname="-slide-3.svg"
   inkscape:version="0.92.4 (f8dce91, 2019-08-02)">
  <sodipodi:namedview
     pagecolor="#ffffff"
     bordercolor="#666666"
     borderopacity="1"
     objecttolerance="10"
     gridtolerance="10"
     guidetolerance="10"
     inkscape:pageopacity="0"
     inkscape:pageshadow="2"
     inkscape:window-width="1868"
     inkscape:window-height="1025"
     id="namedview57"
     showgrid="false"
     inkscape:zoom="0.62441667"
     inkscape:cx="456.47175"
     inkscape:cy="407.88545"
     inkscape:window-x="52"
     inkscape:window-y="27"
     inkscape:window-maximized="1"
     inkscape:current-layer="layer2" />
  <defs
     id="defs2" />
  <metadata
     id="metadata5">
    <rdf:RDF>
      <cc:Work
         rdf:about="">
        <dc:format>image/svg+xml</dc:format>
        <dc:type
           rdf:resource="http://purl.org/dc/dcmitype/StillImage" />
        <dc:title />
      </cc:Work>
    </rdf:RDF>
  </metadata>
  <g
     id="g1015"
     transform="matrix(0.32257812,0,0,0.31991866,27.202169,31.509146)">
    <path
       id="path942"
       d="M 185.469,227.25 4.702,407.495 c -6.269,6.269 -6.269,16.196 0,21.943 3.135,3.135 7.314,4.702 10.971,4.702 4.18,0 7.837,-1.567 10.971,-4.702 l 182.335,-181.29 -4.18,-18.286 z"
       style="fill:#3a2c51"
       inkscape:connector-curvature="0" />
    <path
       id="path944"
       d="m 308.767,171.871 27.69,-64.784 c 2.612,-6.269 1.045,-13.061 -3.657,-17.763 -4.702,-4.702 -12.016,-5.224 -18.286,-2.09 L 253.91,120.671 202.188,74.173 c -5.224,-4.702 -12.016,-5.224 -18.286,-2.09 -5.747,3.135 -8.882,9.927 -7.837,16.196 l 12.016,69.486 -59.559,36.049 c -5.747,3.657 -8.359,9.927 -7.314,16.718 1.567,6.269 6.792,11.494 13.061,12.539 l 49.11,6.269 19.331,2.612 4.18,18.286 11.494,50.155 c 1.567,6.792 6.792,11.494 13.584,12.016 0.522,0 1.045,0 1.567,0 6.269,0 11.494,-3.657 14.106,-8.882 l 29.78,-63.216 68.963,7.314 c 6.792,0.522 13.061,-3.135 15.673,-8.882 2.612,-5.747 1.567,-13.061 -3.135,-17.763 z"
       style="fill:#4dcfe0"
       inkscape:connector-curvature="0" />
    <g
       id="g954">
      <path
         id="path946"
         d="m 313.469,275.838 c -4.702,-7.314 -14.629,-9.404 -21.943,-4.18 -7.314,4.702 -9.404,14.629 -4.18,21.943 l 26.645,40.229 c 3.135,4.702 7.837,6.792 13.061,6.792 3.135,0 5.747,-1.045 8.882,-2.612 7.314,-4.702 9.404,-14.629 4.18,-21.943 z"
         style="fill:#d4e1f4"
         inkscape:connector-curvature="0" />
      <path
         id="path948"
         d="m 264.359,85.144 c 8.882,0 15.673,-6.792 15.673,-15.673 V 22.45 c 0,-8.882 -6.792,-15.673 -15.673,-15.673 -8.882,0 -15.673,6.792 -15.673,15.673 v 47.02 c 0,8.882 6.792,15.674 15.673,15.674 z"
         style="fill:#d4e1f4"
         inkscape:connector-curvature="0" />
      <path
         id="path950"
         d="m 440.424,137.911 c -2.09,-8.359 -10.971,-13.584 -19.331,-11.494 L 358.4,142.613 c -8.359,2.09 -13.584,10.971 -11.494,19.331 1.567,7.314 8.359,11.494 15.151,11.494 1.045,0 2.612,0 4.18,-0.522 l 62.694,-16.196 c 8.881,-1.568 13.583,-9.927 11.493,-18.809 z"
         style="fill:#d4e1f4"
         inkscape:connector-curvature="0" />
      <path
         id="path952"
         d="m 82.547,144.181 46.498,7.837 c 1.045,0 1.567,0 2.612,0 7.314,0 14.106,-5.224 15.673,-13.061 1.567,-8.359 -4.18,-16.718 -13.061,-18.286 l -46.498,-7.837 c -8.359,-1.567 -16.718,4.18 -18.286,13.061 -1.044,8.359 4.703,16.718 13.062,18.286 z"
         style="fill:#d4e1f4"
         inkscape:connector-curvature="0" />
    </g>
  </g>
  <g
     inkscape:groupmode="layer"
     id="layer1"
     inkscape:label="Layer 1" />
  <g
     inkscape:groupmode="layer"
     id="layer2"
     inkscape:label="Layer 2">
    <g
       transform="matrix(3.5962794,0,0,3.8947674,-124.50303,-376.82357)"
       id="layer4">
      <g
         transform="matrix(0.26458333,0,0,0.26458333,-177.72467,38.1502)"
         id="g1470">
        <path
           inkscape:connector-curvature="0"
           style="fill:#ffe269;stroke-width:0.13431312"
           d="m 974.33759,396.39211 5.3656,2.99921 c 0.2042,0.1142 0.4577,0.13052 0.6778,0.0437 l 5.7856,-2.27974 c 0.5544,-0.21845 1.1465,0.23043 1.0019,0.75962 l -1.5098,5.52174 c -0.057,0.21017 0,0.43232 0.1634,0.59406 l 4.1958,4.25015 c 0.4021,0.40734 0.1109,1.05302 -0.4928,1.09265 l -6.2986,0.41346 c -0.2397,0.0157 -0.4555,0.13663 -0.577,0.32334 l -3.1924,4.90654 c -0.3061,0.47017 -1.0779,0.42047 -1.3064,-0.0842 l -2.3831,-5.26621 c -0.091,-0.20036 -0.2851,-0.34782 -0.5199,-0.39421 l -6.1689,-1.21781 c -0.5912,-0.11675 -0.7771,-0.79313 -0.3146,-1.14478 l 4.8257,-3.6682 c 0.1838,-0.13956 0.2793,-0.35164 0.2557,-0.56704 l -0.6202,-5.65914 c -0.059,-0.54231 0.5979,-0.91052 1.1122,-0.62312 z"
           id="path1382" />
        <path
           inkscape:connector-curvature="0"
           style="fill:#ffaacc;stroke-width:0.13431312"
           d="m 995.23347,221.80907 5.36563,2.99921 c 0.2042,0.1142 0.4577,0.13052 0.6778,0.0437 l 5.7856,-2.27974 c 0.5544,-0.21845 1.1465,0.23043 1.0019,0.75962 l -1.5098,5.52174 c -0.057,0.21017 0,0.43232 0.1634,0.59406 l 4.1958,4.25015 c 0.4021,0.40734 0.1109,1.05302 -0.4928,1.09265 l -6.2986,0.41346 c -0.2397,0.0157 -0.4555,0.13663 -0.577,0.32334 l -3.1924,4.90654 c -0.3061,0.47017 -1.07793,0.42047 -1.30643,-0.0842 l -2.3831,-5.26621 c -0.091,-0.20036 -0.2851,-0.34782 -0.5199,-0.39421 l -6.1689,-1.21781 c -0.5912,-0.11675 -0.7771,-0.79313 -0.3146,-1.14478 l 4.8257,-3.6682 c 0.1838,-0.13956 0.2793,-0.35164 0.2557,-0.56704 l -0.6202,-5.65914 c -0.059,-0.54231 0.5979,-0.91052 1.1122,-0.62312 z"
           id="path1382-3" />
        <g
           transform="matrix(0.07273112,0,0,0.06691852,801.78666,326.7609)"
           id="g1117">
          <g
             id="g1053"
             transform="matrix(0.99879952,-0.05323973,0.04507004,0.99879952,-11.230589,13.936692)">
            <path
               style="fill:#fff082"
               d="m 119.278,17.923 c 6.818,9.47 26.062,50.14 37.064,73.842 1.73,3.726 -2.945,7.092 -5.93,4.269 C 131.425,78.082 98.96,46.93 92.142,37.459 c -5.395,-7.493 -3.694,-17.941 3.8,-23.336 7.493,-5.395 17.941,-3.693 23.336,3.8 z"
               id="path1043"
               inkscape:connector-curvature="0" />
            <path
               style="fill:#fff082"
               d="m 392.722,17.923 c -6.818,9.47 -26.062,50.14 -37.064,73.842 -1.73,3.726 2.945,7.092 5.93,4.269 18.987,-17.952 51.451,-49.105 58.27,-58.575 5.395,-7.493 3.694,-17.941 -3.8,-23.336 -7.493,-5.395 -17.941,-3.693 -23.336,3.8 z"
               id="path1045"
               inkscape:connector-curvature="0" />
            <path
               style="fill:#fff082"
               d="m 500.461,295.629 c -11.094,-3.618 -55.689,-9.595 -81.612,-12.875 -4.075,-0.516 -5.861,4.961 -2.266,6.947 22.873,12.635 62.416,34.099 73.51,37.717 8.778,2.863 18.215,-1.932 21.078,-10.711 2.863,-8.779 -1.932,-18.215 -10.71,-21.078 z"
               id="path1047"
               inkscape:connector-curvature="0" />
            <path
               style="fill:#fff082"
               d="m 11.539,295.629 c 11.094,-3.618 55.689,-9.595 81.612,-12.875 4.075,-0.516 5.861,4.961 2.266,6.947 -22.873,12.635 -62.416,34.099 -73.51,37.717 -8.778,2.863 -18.215,-1.932 -21.078,-10.711 -2.863,-8.779 1.932,-18.215 10.71,-21.078 z"
               id="path1049"
               inkscape:connector-curvature="0" />
            <path
               style="fill:#fff082"
               d="m 239.794,484.31 c 0,-11.669 8.145,-55.919 13.065,-81.582 0.773,-4.034 6.534,-4.034 7.307,0 4.92,25.663 13.065,69.913 13.065,81.582 0,9.233 -7.485,16.718 -16.718,16.718 -9.234,10e-4 -16.719,-7.485 -16.719,-16.718 z"
               id="path1051"
               inkscape:connector-curvature="0" />
          </g>
        </g>
        <path
           inkscape:connector-curvature="0"
           style="fill:#ffaaaa;stroke-width:0.13431312"
           d="m 828.20037,237.09685 5.3656,2.99921 c 0.2042,0.1142 0.4577,0.13052 0.6778,0.0437 l 5.7856,-2.27974 c 0.5544,-0.21845 1.1465,0.23043 1.0019,0.75962 l -1.5098,5.52174 c -0.057,0.21017 0,0.43232 0.1634,0.59406 l 4.1958,4.25015 c 0.4021,0.40734 0.1109,1.05302 -0.4928,1.09265 l -6.2986,0.41346 c -0.2397,0.0157 -0.4555,0.13663 -0.577,0.32334 l -3.1924,4.90654 c -0.3061,0.47017 -1.0779,0.42047 -1.3064,-0.0842 l -2.3831,-5.26621 c -0.091,-0.20036 -0.2851,-0.34782 -0.5199,-0.39421 l -6.1689,-1.21781 c -0.5912,-0.11675 -0.7771,-0.79313 -0.3146,-1.14478 l 4.8257,-3.6682 c 0.1838,-0.13956 0.2793,-0.35164 0.2557,-0.56704 l -0.6202,-5.65914 c -0.059,-0.54231 0.5979,-0.91052 1.1122,-0.62312 z"
           id="path1382-6" />
      </g>
    </g>
  </g>
</svg>
