<svg height="512pt" viewBox="0 -20 512.00002 512" width="512pt" xmlns="http://www.w3.org/2000/svg"><path d="m207.621094 96.648438-71.398438 35.472656v45.808594h15v-36.511719l63.074219-31.335938zm0 0"/><path d="m317.175781 155.433594-82.125 85.359375-36.78125-45.601563-44.902343 36.023438 77.839843 96.648437 127.472657-132.414062zm-142.699219 78.078125 21.511719-17.257813 38.070313 47.203125 83.515625-86.804687 19.90625 19.191406-105.269531 109.351562zm0 0"/><path d="m492.175781 188.980469c-8.277343 0-15.386719 5.101562-18.351562 12.324219h-10.730469l-23.109375-23.113282v-8.371094h19.480469c2.964844 7.226563 10.074218 12.324219 18.351562 12.324219 10.933594 0 19.824219-8.890625 19.824219-19.824219 0-10.929687-8.890625-19.824218-19.824219-19.824218-8.277344 0-15.386718 5.101562-18.351562 12.324218h-19.480469v-8.367187l23.109375-23.113281h10.730469c2.964843 7.222656 10.074219 12.324218 18.351562 12.324218 10.929688 0 19.824219-8.894531 19.824219-19.824218 0-10.933594-8.894531-19.824219-19.824219-19.824219-8.277343 0-15.386719 5.101563-18.351562 12.324219h-16.941407l-16.898437 16.898437v-33.832031l-183.984375-91.40625-183.984375 91.40625v108.03125l-16.894531-16.898438h-16.945313c-2.960937-7.226562-10.070312-12.324218-18.351562-12.324218-10.929688 0-19.824219 8.890625-19.824219 19.824218 0 10.929688 8.894531 19.824219 19.824219 19.824219 8.28125 0 15.390625-5.101562 18.351562-12.324219h10.730469l23.109375 23.109376v2.535156c0 1.949218.023437 3.894531.066406 5.835937h-19.546875c-2.960937-7.222656-10.074218-12.324219-18.351562-12.324219-10.929688 0-19.824219 8.894532-19.824219 19.824219 0 10.929688 8.894531 19.824219 19.824219 19.824219 8.277344 0 15.386718-5.101562 18.351562-12.324219h20.304688c.183594 2.308594.398437 4.613281.640625 6.910157l-24.574219 24.574218h-10.730469c-2.960937-7.222656-10.070312-12.324218-18.351562-12.324218-10.929688 0-19.824219 8.894531-19.824219 19.824218 0 10.929688 8.894531 19.824219 19.824219 19.824219 8.28125 0 15.390625-5.101563 18.351562-12.324219h16.945313l21.007812-21.007812c6.550782 36.472656 20.851563 71.148437 42.289063 102.074218 30.351562 43.789063 72.769531 76.816407 122.664062 95.515626l14.917969 5.589843 14.917969-5.589843c49.894531-18.695313 92.3125-51.726563 122.667969-95.515626 30.351562-43.792968 46.398437-95.101562 46.398437-148.382812v-23.78125l16.898437 16.898438h16.941407c2.964843 7.222656 10.074219 12.324218 18.351562 12.324218 10.929688 0 19.824219-8.894531 19.824219-19.824218 0-10.933594-8.894531-19.824219-19.824219-19.824219zm-14.359375-31.484375c2.660156 0 4.824219 2.164062 4.824219 4.824218 0 2.660157-2.164063 4.824219-4.824219 4.824219s-4.824218-2.164062-4.824218-4.824219c0-2.660156 2.164062-4.824218 4.824218-4.824218zm14.359375-46.480469c2.660157 0 4.824219 2.164063 4.824219 4.824219s-2.164062 4.824218-4.824219 4.824218c-2.660156 0-4.824219-2.164062-4.824219-4.824218s2.164063-4.824219 4.824219-4.824219zm-472.351562 83.847656c-2.660157 0-4.824219-2.164062-4.824219-4.824219 0-2.660156 2.164062-4.824218 4.824219-4.824218 2.660156 0 4.824219 2.164062 4.824219 4.824218 0 2.660157-2.164063 4.824219-4.824219 4.824219zm14.359375 46.484375c-2.660156 0-4.824219-2.167968-4.824219-4.828125 0-2.660156 2.164063-4.824219 4.824219-4.824219s4.824218 2.164063 4.824218 4.824219c0 2.660157-2.164062 4.828125-4.824218 4.828125zm-14.359375 46.480469c-2.660157 0-4.824219-2.164063-4.824219-4.824219s2.164062-4.824218 4.824219-4.824218c2.660156 0 4.824219 2.164062 4.824219 4.824218s-2.164063 4.824219-4.824219 4.824219zm228.675781 33.46875v89.191406c-73.570312-32.222656-122.277344-105.988281-122.277344-186.90625v-97.660156l122.277344-60.75v124.664063h15v-124.660157l122.277344 60.746094v97.660156c0 80.917969-48.707032 154.683594-122.277344 186.90625v-89.191406zm-117.753906 41.726563c-28.609375-41.269532-43.730469-89.621094-43.730469-139.835938v-122.484375l161.484375-80.226563v27.945313l-137.277344 68.203125v106.957031c0 44.796875 13.488282 87.9375 39.011719 124.757813 24.527344 35.382812 58.425781 62.414062 98.265625 78.417968v27.089844l-2.152344-.808594c-47.023437-17.621093-86.996094-48.746093-115.601562-90.015624zm294.238281-139.835938c0 50.214844-15.121094 98.566406-43.726563 139.835938-28.609374 41.269531-68.582031 72.394531-115.601562 90.015624l-2.15625.808594v-27.089844c39.84375-16.003906 73.738281-43.03125 98.265625-78.417968 25.523437-36.820313 39.011719-79.957032 39.011719-124.757813v-106.957031l-137.277344-68.199219v-27.949219l161.484375 80.226563zm67.191406-9.558594c-2.660156 0-4.824219-2.164062-4.824219-4.824218 0-2.660157 2.164063-4.824219 4.824219-4.824219 2.660157 0 4.824219 2.164062 4.824219 4.824219 0 2.660156-2.164062 4.824218-4.824219 4.824218zm0 0"/><path d="m399.574219 110.230469-73.824219-36.675781 6.671875-13.433594 73.824219 36.675781zm-82.78125-41.125-13.433594-6.675781 6.671875-13.433594 13.433594 6.675781zm-22.386719-11.125-13.433594-6.671875 6.671875-13.433594 13.433594 6.671875zm0 0"/><path d="m294.960938 381.1875-8.746094-12.1875c16.582031-11.894531 30.9375-26.515625 42.675781-43.449219 11.605469-16.738281 20.191406-35.089843 25.53125-54.542969l14.464844 3.96875c-5.785157 21.09375-15.097657 40.984376-27.667969 59.121094-12.714844 18.347656-28.28125 34.191406-46.257812 47.089844zm76.40625-116.316406-14.65625-3.183594c1.011718-4.667969 1.847656-9.433594 2.480468-14.171875l14.867188 1.988281c-.6875 5.136719-1.59375 10.304688-2.691406 15.367188zm3.792968-25.707032-14.953125-1.191406c.378907-4.757812.570313-9.597656.570313-14.390625h15c0 5.1875-.207032 10.429688-.617188 15.582031zm0 0"/></svg>